<?xml version="1.0" encoding="utf-8"?>
<!-- Generator: Adobe Illustrator 21.1.0, SVG Export Plug-In . SVG Version: 6.00 Build 0)  -->
<svg version="1.1" id="Layer_2" xmlns="http://www.w3.org/2000/svg" xmlns:xlink="http://www.w3.org/1999/xlink" x="0px" y="0px"
	 viewBox="0 0 420.7 248.9" style="enable-background:new 0 0 420.7 248.9;" xml:space="preserve">
<style type="text/css">
	.st0{fill:none;stroke:#000000;stroke-width:0.25;stroke-miterlimit:10;}
</style>
<title>i_HEX_EC520Location</title>
<path d="M60.1,148.4c0.4,0.2,1,0.1,1.2-0.3c0.2-0.4,0.3-0.8,0.2-1.2l0,0c0,0,0,0,0,0.1c0,0.4-0.1,0.7-0.3,1.1
	c-0.1,0.1-0.3,0.2-0.5,0.2c0.4-0.4,0.5-1,0.3-1.5h-0.1v0.1c0.2,0.7,0,1.2-0.4,1.4l0,0c-0.1,0-0.2,0-0.3-0.1h-0.1
	c0.3-0.3,0.4-0.8,0.2-1.2h-0.1v0.1c0.2,0.4,0.1,0.8-0.2,1.1c-0.1-0.1-0.2-0.1-0.3-0.2c0.1-0.2,0.1-0.5,0-0.8h-0.1v0.1
	c0.1,0.2,0.1,0.4,0.1,0.6c-0.3-0.4-0.6-0.8-0.8-1.3c-0.1-0.3-0.1-0.5-0.2-0.8c0.3,0.3,0.6,0.7,0.7,1.1c0,0,0,0,0.1,0l0,0v-0.1
	c-0.2-0.5-0.5-0.9-0.9-1.2v-0.1c0-0.1,0-0.2,0-0.3c0.1,0,0.1,0,0.2,0c0.5,0.3,0.9,0.8,1.1,1.3c0,0,0,0,0.1,0l0,0v-0.1
	c-0.2-0.6-0.6-1.1-1.2-1.4c-0.1,0-0.1,0-0.2,0c0-0.1,0-0.1,0.1-0.2c0.2-0.1,0.4-0.1,0.6,0c0.6,0.3,1,0.8,1.2,1.4c0,0,0,0,0.1,0l0,0
	v-0.1c-0.2-0.6-0.7-1.2-1.3-1.5c-0.2-0.1-0.3-0.1-0.5-0.1l0.1-0.1c0.3-0.1,0.7-0.1,1,0.2c0.3,0.2,0.6,0.5,0.8,0.9l0,0c0,0,0,0,0.1,0
	c0,0,0,0,0-0.1c-0.2-0.3-0.5-0.7-0.8-0.9c-0.3-0.3-0.8-0.5-1.2-0.4c-0.4,0.2-0.7,0.6-0.8,1.1c0,0.4,0,0.9,0.1,1.3
	C58.8,147.4,59.4,148,60.1,148.4z"/>
<path d="M61.5,105.6c0.4,0.2,1,0.1,1.2-0.3s0.3-0.8,0.2-1.2l0,0c0,0,0,0,0,0.1c0,0.4-0.1,0.7-0.3,1.1c-0.1,0.1-0.3,0.2-0.5,0.2
	c0.4-0.4,0.6-1,0.3-1.5h-0.1v0.1c0.2,0.7,0,1.2-0.4,1.4l0,0c-0.1,0-0.2,0-0.3-0.1h-0.1c0.3-0.3,0.4-0.8,0.2-1.2h-0.1v0.1
	c0.2,0.4,0.1,0.8-0.2,1.1c-0.1-0.1-0.2-0.1-0.3-0.2c0.1-0.2,0.1-0.5,0-0.8H61v0.1c0.1,0.2,0.1,0.4,0.1,0.6c-0.3-0.4-0.6-0.8-0.8-1.3
	c-0.1-0.3-0.1-0.5-0.2-0.8c0.3,0.3,0.6,0.7,0.7,1.1c0,0,0,0,0.1,0l0,0V104c-0.2-0.5-0.5-0.9-0.9-1.2v-0.1c0-0.1,0-0.2,0-0.3
	c0.1,0,0.1,0,0.2,0c0.4,0.2,0.6,0.4,0.8,0.8c0,0.1,0,0.2,0,0.2c0,0.1,0.1,0.1,0.2,0.1c0,0.1,0.1,0.1,0.1,0.2c0,0,0,0,0.1,0l0,0v-0.1
	c0-0.1,0-0.1-0.1-0.2l0,0l0.5-0.3c0,0.1,0.1,0.2,0.1,0.2s0,0,0.1,0l0,0v-0.1c0-0.1-0.1-0.2-0.1-0.2l0.3-0.2c0.1-0.1,0.2-0.2,0.1-0.3
	c-0.1-0.1-0.1-0.1-0.2-0.1c-0.2-0.3-0.4-0.5-0.6-0.7c-0.3-0.3-0.8-0.5-1.2-0.3s-0.7,0.6-0.8,1.1c0,0.4,0,0.9,0.1,1.3
	C60.2,104.6,60.7,105.3,61.5,105.6z M61.3,103L61.3,103c-0.2-0.3-0.5-0.6-0.9-0.8c-0.1,0-0.1,0-0.2,0c0-0.1,0-0.1,0.1-0.2
	c0.2-0.1,0.4-0.1,0.6,0c0.4,0.2,0.7,0.4,0.9,0.7L61.3,103z M60.6,101.7c0.3-0.1,0.7-0.1,1,0.2c0.2,0.2,0.4,0.4,0.6,0.6l-0.3,0.2
	c-0.2-0.3-0.6-0.6-0.9-0.8c-0.2-0.1-0.3-0.1-0.5-0.1C60.5,101.8,60.5,101.7,60.6,101.7L60.6,101.7z"/>
<path d="M120.7,144.3c0.4,0.2,1,0.1,1.2-0.3c0.2-0.4,0.3-0.8,0.2-1.2c0,0,0,0-0.1,0c0,0,0,0,0,0.1c0,0.4-0.1,0.7-0.3,1.1
	c-0.1,0.1-0.3,0.2-0.5,0.2c0.4-0.4,0.6-1,0.3-1.5h-0.1v0.1c0.2,0.7,0,1.2-0.4,1.4l0,0c-0.1,0-0.2,0-0.3-0.1h-0.1
	c0.3-0.3,0.4-0.8,0.2-1.2h-0.1v0.1c0.2,0.4,0.1,0.8-0.2,1.1c-0.1-0.1-0.2-0.1-0.3-0.2c0.1-0.2,0.1-0.5,0-0.8h-0.1v0.1
	c0.1,0.2,0.1,0.4,0.1,0.6c-0.3-0.4-0.6-0.8-0.8-1.3c-0.1-0.3-0.1-0.5-0.2-0.8c0.3,0.3,0.6,0.7,0.7,1.1c0,0,0,0,0.1,0l0,0v-0.1
	c-0.2-0.5-0.5-0.9-0.9-1.2v-0.1c0-0.1,0-0.2,0-0.3c0.1,0,0.1,0,0.2,0c0.4,0.2,0.8,0.6,1,1l-0.2,0.1c-0.1,0.1-0.2,0.2-0.1,0.3
	c0,0.1,0.1,0.1,0.2,0.1h0.1l0.8-0.4c0,0,0,0,0.1,0l0,0v-0.1l0,0c0.1-0.1,0.1-0.2,0.1-0.3c-0.1-0.1-0.2-0.1-0.3-0.1
	c-0.3-0.4-0.6-0.8-1.1-1c-0.2-0.1-0.3-0.1-0.5-0.1l0.1-0.1c0.3-0.1,0.7-0.1,1,0.2c0.3,0.2,0.6,0.5,0.8,0.9l0,0c0,0,0,0,0.1,0
	c0,0,0,0,0-0.1l0,0c-0.2-0.3-0.5-0.7-0.8-0.9c-0.3-0.3-0.8-0.5-1.2-0.4c-0.4,0.2-0.7,0.6-0.8,1.1c0,0.4,0,0.9,0.1,1.3
	C119.5,143.4,120,144,120.7,144.3z M120.1,140.7c0.4,0.2,0.8,0.6,1,1l-0.5,0.3c-0.2-0.4-0.6-0.8-1-1c-0.1,0-0.1,0-0.2,0
	c0-0.1,0-0.1,0.1-0.2C119.7,140.7,119.9,140.6,120.1,140.7z"/>
<path d="M119.4,187.1c0.4,0.2,1,0.1,1.2-0.3c0.2-0.4,0.3-0.8,0.2-1.2c0,0,0,0-0.1,0c0,0,0,0,0,0.1c0,0.4-0.1,0.7-0.3,1.1
	c-0.1,0.1-0.3,0.2-0.5,0.2c0.4-0.4,0.5-1,0.3-1.5h-0.1v0.1c0.2,0.7,0,1.2-0.4,1.4l0,0c-0.1,0-0.2,0-0.3-0.1h-0.1
	c0.3-0.3,0.4-0.8,0.2-1.2c0,0,0-0.1-0.1-0.1c0,0-0.1,0-0.1,0.1c0.2,0.4,0.1,0.8-0.2,1.1c-0.1-0.1-0.2-0.1-0.3-0.2
	c0.1-0.2,0.1-0.5,0-0.8h-0.1v0.1c0.1,0.2,0.1,0.4,0.1,0.6c-0.3-0.4-0.6-0.8-0.8-1.3c-0.1-0.3-0.1-0.5-0.2-0.8
	c0.3,0.3,0.6,0.7,0.7,1.1c0,0,0,0,0.1,0l0,0v-0.1c-0.2-0.5-0.5-0.9-0.9-1.2v-0.1c0-0.1,0-0.2,0-0.3c0.1,0,0.1,0,0.2,0
	c0.5,0.3,0.9,0.8,1.1,1.3c0,0,0,0,0.1,0l0,0V185c-0.2-0.6-0.6-1.1-1.2-1.4c-0.1,0-0.1,0-0.2,0c0-0.1,0-0.1,0.1-0.2
	c0.2-0.1,0.4-0.1,0.6,0c0.5,0.2,0.8,0.6,1.1,1.1l0,0c-0.1,0.1-0.1,0.2-0.1,0.3c0.1,0.1,0.2,0.1,0.3,0.1l0.9-0.5
	c0.1-0.1,0.1-0.2,0.1-0.3c-0.1-0.1-0.2-0.1-0.3-0.1l-0.7,0.4c-0.2-0.5-0.6-0.9-1.1-1.1c-0.2-0.1-0.3-0.1-0.5-0.1l0.1-0.1
	c0.3-0.1,0.7-0.1,1,0.2c0.3,0.2,0.6,0.5,0.8,0.9l0,0c0,0,0,0,0.1,0c0,0,0,0,0-0.1l0,0c-0.2-0.3-0.5-0.7-0.8-0.9
	c-0.3-0.3-0.8-0.5-1.2-0.4c-0.4,0.2-0.7,0.6-0.8,1.1c0,0.4,0,0.9,0.1,1.3C118,186,118.6,186.7,119.4,187.1z"/>
<path d="M98.2,160.5c1.9,1.4,10.7,7,10.7,7l0,0l2,1.4c0.4,0.3,0.7,0.5,1.2,0.8c0.3,0.2,0.6,0.2,0.8,0c0.2-0.2,0.3-0.5,0.2-0.8l0,0
	l0.5-17.7c0-0.9-0.5-1.7-1.2-2.3L98.5,140l-0.1-0.1l0,0c-0.1-0.1-0.3-0.2-0.4-0.2c-0.2-0.1-0.4,0-0.6,0.1c-0.2,0.3-0.3,0.6-0.3,1
	v1.8v2.9l0,0l-0.3,11.3C96.6,158.2,97.2,159.6,98.2,160.5z M109,166.9c0.1-2.4,0.4-11.2,0.6-11.8s0.8-1,1.4-1h0.2
	c0.3,0.1,0.6,0.2,0.8,0.4c0.4,0.3,0.4,1,0.3,1l-0.1,3.1c-0.2-0.3-0.6-0.4-0.9-0.5c-0.5-0.1-1.1,0.1-1.5,0.5v0.1h0.1l0,0
	c0.3-0.4,0.9-0.5,1.3-0.5s0.7,0.2,0.9,0.5l0,0L112,161c-0.2-0.2-0.5-0.3-0.8-0.4c-0.5-0.1-1.1,0.1-1.5,0.5v0.1h0.1l0,0
	c0.3-0.4,0.9-0.5,1.3-0.5c0.3,0,0.6,0.2,0.8,0.4l-0.1,2.4c-0.2-0.2-0.5-0.4-0.8-0.4c-0.5-0.1-1.1,0.1-1.5,0.5v0.1l0,0h0.1l0,0
	c0.3-0.4,0.9-0.5,1.3-0.5c0.3,0,0.6,0.2,0.8,0.5l-0.1,2.3c-0.2-0.2-0.5-0.3-0.8-0.4c-0.5-0.1-1.1,0.1-1.5,0.5v0.1h0.1l0,0
	c0.3-0.4,0.9-0.5,1.3-0.5c0.3,0,0.6,0.2,0.8,0.4l-0.1,2.6l-0.6-0.4L109,166.9z M112.4,149.1c0.7,0.5,1.1,1.3,1.1,2.1l-0.5,17.7
	c0,0.2-0.1,0.4-0.2,0.5s-0.3,0-0.5-0.1l-0.1-0.1l0,0l0.5-13.7c0.1-0.5-0.1-1-0.5-1.4c-0.3-0.2-0.7-0.4-1.1-0.4v-0.1
	c0-0.7-0.3-1.4-0.8-1.9c0.3-0.4,0.5-0.9,0.5-1.4c-0.1-0.4-0.3-0.8-0.7-1.1c-1.6-0.9-11.1-6.9-12.5-7.8v-0.9c-0.1-0.2,0-0.5,0.1-0.7
	c0,0,0,0,0.1-0.1l0,0H98c0.1,0,0.3,0.1,0.4,0.1l0.1,0.1L112.4,149.1z M97.6,142.4V142c2,1.2,10.7,6.8,12.2,7.7
	c0.3,0.2,0.4,0.5,0.5,0.8c0,0.4-0.1,0.7-0.4,1l0,0c-0.3,0.4-0.8,0.7-1.3,0.7c-0.2,0-0.5-0.1-0.7-0.2c-0.4-0.3-8.2-5.1-10.2-6.3
	L97.6,142.4z M97.9,156.9c0-0.1,0-0.1,0-0.2l0.3-9.6c3.9,2.4,8.8,5.4,9.2,5.7c0.4,0.3,0.8,0.4,1.3,0.4c0.4,0,0.9-0.1,1.2-0.4
	c0.1,0.2,0.1,0.3,0.2,0.5c-0.7,0.3-1.2,0.8-1.4,1.5c-0.2,0.6-0.4,5.9-0.6,10.9c-2.6-1.7-7.8-5-9.2-6C98,159,97.6,157.9,97.9,156.9
	L97.9,156.9z"/>
<path d="M100,144.9c-0.3,0.4-0.5,1-0.3,1.5c0,0,0,0,0.1,0l0,0v-0.1C99.6,145.8,99.7,145.3,100,144.9c0.3-0.2,0.6-0.4,1-0.4h0.1
	c0,0,0.1-0.1,0-0.1l0,0C100.6,144.3,100.2,144.5,100,144.9z"/>
<path d="M102.9,145.6c-0.4,0-0.8,0.2-1,0.5c-0.3,0.4-0.5,1-0.3,1.5c0,0,0,0,0.1,0l0,0v-0.1c-0.1-0.5,0-1,0.3-1.4
	C102.1,145.9,102.5,145.7,102.9,145.6L102.9,145.6C102.8,145.7,102.9,145.6,102.9,145.6S102.9,145.5,102.9,145.6L102.9,145.6z"/>
<path d="M104.9,146.9c-0.4,0-0.8,0.2-1,0.5c-0.3,0.4-0.5,1-0.3,1.5c0,0,0,0,0.1,0l0,0v-0.1c-0.1-0.5,0-1,0.3-1.4
	C104.2,147.2,104.5,147.1,104.9,146.9L104.9,146.9C105,147,105,146.9,104.9,146.9C105,146.9,105,146.9,104.9,146.9L104.9,146.9z"/>
<path d="M107.2,148.2c-0.4,0-0.8,0.2-1,0.5c-0.3,0.4-0.5,1-0.3,1.5c0,0,0,0,0.1,0l0,0v-0.1c-0.1-0.5,0-1,0.3-1.4
	C106.5,148.5,106.8,148.3,107.2,148.2L107.2,148.2C107.3,148.3,107.3,148.2,107.2,148.2C107.3,148.2,107.2,148.2,107.2,148.2
	L107.2,148.2z"/>
<path d="M99.2,143.1c-0.4,0-0.8,0.2-1,0.5c-0.3,0.4-0.5,1-0.3,1.5c0,0,0,0,0.1,0l0,0V145c-0.1-0.5,0-1,0.3-1.4
	C98.4,143.4,98.8,143.2,99.2,143.1L99.2,143.1C99.2,143.2,99.2,143.1,99.2,143.1L99.2,143.1L99.2,143.1z"/>
<path d="M108,151.8C108,151.8,108,151.7,108,151.8c-0.1-0.6,0-1.1,0.3-1.4c0.2-0.3,0.5-0.5,0.9-0.5h0.1c0,0,0.1-0.1,0-0.1l0,0h-0.1
	c-0.4,0-0.8,0.2-1,0.5C107.9,150.7,107.7,151.3,108,151.8C107.9,151.8,107.9,151.8,108,151.8L108,151.8z"/>
<path d="M109.8,156.6c0.3-0.4,0.9-0.5,1.3-0.5s0.7,0.2,0.9,0.5c0,0,0,0,0.1,0l0,0v-0.1c-0.2-0.3-0.6-0.6-1-0.6
	c-0.5-0.1-1.1,0.1-1.5,0.5v0.1l0,0C109.7,156.7,109.7,156.7,109.8,156.6C109.8,156.7,109.8,156.7,109.8,156.6L109.8,156.6z"/>
<path d="M68.1,139.7c1.9,1.4,10.7,7,10.7,7l0,0l2,1.4c0.4,0.3,0.7,0.5,1.2,0.8c0.3,0.2,0.6,0.2,0.8,0c0.2-0.2,0.3-0.5,0.2-0.8l0,0
	l0.5-17.7c0-0.9-0.5-1.7-1.2-2.3l-14-9.2l-0.1-0.1l0,0c-0.1-0.1-0.3-0.2-0.4-0.2c-0.2-0.1-0.4,0-0.6,0.1c-0.2,0.3-0.3,0.6-0.3,1v1.8
	v2.9l0,0l-0.3,11.3C66.5,137.3,67,138.8,68.1,139.7z M78.9,146.1c0.1-2,0.3-8.2,0.5-10.7l0.2-0.1c0.1-0.1,0.2-0.2,0.1-0.3
	c0-0.1-0.1-0.1-0.2-0.1c0-0.2,0-0.3,0.1-0.5c0.2-0.6,0.8-1,1.4-1l0,0c0.2,0,0.4,0.1,0.5,0.2l-0.6,0.3c-0.1,0.1-0.1,0.2-0.1,0.3
	c0.1,0.1,0.2,0.1,0.3,0.1l0.8-0.4c0.2,0.3,0.2,0.6,0.2,0.9l-0.2,3.2c-0.2-0.3-0.6-0.4-0.9-0.5c-0.5-0.1-1.1,0.1-1.5,0.5v0.1h0.1l0,0
	c0.3-0.4,0.9-0.5,1.3-0.5s0.7,0.2,0.9,0.5l0,0l-0.1,2.3c-0.2-0.2-0.5-0.3-0.8-0.4c-0.5-0.1-1.1,0.1-1.5,0.5v0.1l0,0h0.1l0,0
	c0.3-0.4,0.9-0.5,1.3-0.5c0.3,0,0.6,0.2,0.8,0.4v2.4c-0.2-0.2-0.5-0.4-0.8-0.4c-0.5-0.1-1.1,0.1-1.5,0.5v0.1h0.1l0,0
	c0.3-0.4,0.9-0.5,1.3-0.5c0.3,0,0.6,0.2,0.8,0.5l-0.1,2.3c-0.2-0.2-0.5-0.3-0.8-0.4c-0.5-0.1-1.1,0.1-1.5,0.5v0.1h0.1l0,0
	c0.3-0.4,0.9-0.5,1.3-0.5c0.3,0,0.6,0.2,0.8,0.4l-0.1,2.6l-0.6-0.4L78.9,146.1z M82.2,128.3c0.7,0.5,1.1,1.3,1.1,2.1l-0.5,17.7
	c0,0.2-0.1,0.4-0.2,0.5s-0.3,0-0.5-0.1l-0.1-0.1l0,0l0.5-13.7c0-0.4-0.1-0.8-0.3-1.1l0.6-0.4c0.1-0.1,0.1-0.2,0.1-0.3
	c-0.1-0.1-0.2-0.1-0.3-0.1l-0.8,0.4c-0.3-0.2-0.6-0.3-0.9-0.4v-0.1c0-0.7-0.3-1.4-0.8-1.9c0.3-0.4,0.5-0.9,0.5-1.4
	c-0.1-0.4-0.3-0.8-0.7-1.1c-1.6-0.9-11.1-6.9-12.5-7.8v-0.9c-0.1-0.2,0-0.5,0.1-0.7c0,0,0.1,0,0.1-0.1l0,0h0.2
	c0.1,0,0.3,0.1,0.4,0.1l0.1,0.1L82.2,128.3z M67.5,121.6v-0.4c2,1.2,10.7,6.8,12.2,7.7c0.3,0.2,0.4,0.5,0.5,0.8c0,0.4-0.1,0.7-0.4,1
	l0,0c-0.3,0.4-0.8,0.7-1.3,0.7c-0.2,0-0.5-0.1-0.7-0.2c-0.4-0.3-8.2-5.1-10.2-6.3L67.5,121.6z M67.7,136.1c0-0.1,0-0.1,0-0.2
	l0.3-9.6c3.9,2.4,8.8,5.4,9.2,5.7c0.4,0.2,0.8,0.4,1.3,0.4c0.4,0,0.9-0.1,1.2-0.4c0.1,0.2,0.1,0.3,0.2,0.5c-0.7,0.3-1.2,0.8-1.4,1.5
	c-0.1,0.5-0.2,0.9-0.2,1.4l-4.2,2.4c-0.1,0.1-0.1,0.2-0.1,0.3c0.1,0.1,0.2,0.1,0.3,0.1l3.9-2.2c-0.1,2.1-0.3,5.6-0.4,8.9
	c-2.6-1.7-7.8-5-9.2-6C67.9,138.2,67.5,137.1,67.7,136.1L67.7,136.1z"/>
<path d="M69.9,124.1c-0.3,0.4-0.5,1-0.3,1.5c0,0,0,0,0.1,0l0,0v-0.1C69.5,125,69.6,124.5,69.9,124.1c0.3-0.2,0.6-0.4,1-0.4l0,0
	c0,0,0.1,0,0.1-0.1c0,0,0-0.1-0.1-0.1C70.5,123.5,70.1,123.7,69.9,124.1z"/>
<path d="M71.7,125.3c-0.3,0.4-0.5,1-0.3,1.5c0,0,0,0,0.1,0l0,0v-0.1C71.4,126.2,71.5,125.7,71.7,125.3c0.3-0.3,0.6-0.4,1-0.4
	c0,0,0.1,0,0.1-0.1c0,0,0-0.1-0.1-0.1C72.3,124.8,72,125,71.7,125.3z"/>
<path d="M74.8,126.1c-0.4,0-0.8,0.2-1,0.5c-0.3,0.4-0.5,1-0.3,1.5c0,0,0,0,0.1,0l0,0V128c-0.1-0.5,0-1,0.3-1.3
	C74.1,126.4,74.4,126.3,74.8,126.1L74.8,126.1C74.9,126.2,74.9,126.2,74.8,126.1C74.9,126.1,74.8,126.1,74.8,126.1L74.8,126.1z"/>
<path d="M77.1,127.4c-0.4,0-0.8,0.2-1,0.5c-0.3,0.4-0.5,1-0.3,1.5c0,0,0,0,0.1,0l0,0v-0.1c-0.1-0.5,0-1,0.3-1.3
	C76.4,127.7,76.7,127.5,77.1,127.4L77.1,127.4C77.2,127.5,77.2,127.5,77.1,127.4C77.2,127.4,77.2,127.4,77.1,127.4L77.1,127.4z"/>
<path d="M68,122.8c-0.3,0.4-0.5,1-0.3,1.5c0,0,0,0.1,0.1,0.1l0,0v-0.1C67.6,123.8,67.7,123.3,68,122.8c0.3-0.2,0.6-0.4,1-0.4l0,0
	c0,0,0.1,0,0.1-0.1c0,0,0-0.1-0.1-0.1C68.6,122.3,68.2,122.5,68,122.8z"/>
<path d="M77.9,131C77.9,131,77.9,130.9,77.9,131c-0.1-0.6,0-1.1,0.3-1.4c0.2-0.3,0.5-0.5,0.9-0.5h0.1c0,0,0.1-0.1,0-0.1l0,0h-0.1
	c-0.4,0-0.8,0.2-1,0.5C77.8,129.9,77.6,130.5,77.9,131C77.8,131,77.8,131,77.9,131L77.9,131z"/>
<path d="M79.7,135.8c0.3-0.4,0.9-0.5,1.3-0.5s0.7,0.2,0.9,0.5c0,0,0,0,0.1,0l0,0v-0.1c-0.2-0.3-0.6-0.6-1-0.6
	c-0.5-0.1-1.1,0.1-1.5,0.5v0.1l0,0C79.6,135.9,79.6,135.9,79.7,135.8C79.7,135.9,79.7,135.9,79.7,135.8z"/>
<path d="M355.8,143.7c-0.1-0.1-0.3-0.1-0.3,0.1c-0.1,0.1-0.1,0.3,0.1,0.3l0,0l19.8,11.4h0.1h0.1l3.7-2.1c0,0,0.1,0,0.1-0.1l19-11.1
	c0.1-0.1,0.1-0.2,0.1-0.3c-0.1-0.1-0.2-0.1-0.3-0.1l-19.5-11.1h-0.1L355.8,143.7z M379.4,151.6l17.6-10.3l0.9,0.5l-18.5,10.8V151.6z
	 M378.6,130.8l18.1,10.4l-17.4,10.2l-17.8-10.7L378.6,130.8z M361.2,140.8L361.2,140.8l17.9,10.7v1.2l-3.6,2.2L356,143.8
	L361.2,140.8z"/>
<path d="M388.4,165.7l5.9-3.4l26.3,15.7h0.1c0.1,0,0.1-0.1,0.1-0.1v-0.1l-26.2-15.7l19.2-11.1l6.9,4c0.1,0,0.1,0,0.2-0.1
	c0-0.1,0-0.1,0-0.2l-6.9-4h-0.1l-25.5,14.8l0,0c-0.1-0.1-0.3-0.1-0.3,0.1c-0.1,0.1-0.1,0.3,0.1,0.3l0,0l32.7,18.8
	c0.1,0.1,0.3,0.1,0.3-0.1c0.1-0.1,0.1-0.3-0.1-0.3l0,0L388.4,165.7z"/>
<path d="M420.9,141.3l-13.9-8v-0.4c0-0.1,0-0.2-0.1-0.2l-0.8-0.4l0.6-1l14,8.1h0.1c0.1,0,0.1-0.1,0.1-0.1v-0.1l-14-8.1l0.1-0.2v-0.1
	V86.5l13.7,7.9v-1.2l-12.9-7.4V50.2c0-0.4-0.2-0.7-0.5-0.9L351,16.8c-0.3-0.2-0.7-0.2-1,0l-50.8,29.3c-0.1,0.1-0.2,0.1-0.3,0.2
	c-3.1,3.7-5.1,9.2-6.1,12.5l-19.6-46.5C271.3,8.1,269.3,4,267,0h-1.2c2.4,4.1,4.6,8.3,6.4,12.7l20.6,48.8
	c-0.9,3.5-4.4,17.3-4.4,29.5v0.6l-40.5-74.9c-0.1-0.1-6.9-11.4-13.1-16.8c0,0-0.1-0.1-0.2,0l0,0c0,0-0.1,0.1,0,0.2l0,0
	c6.1,5.3,13,16.6,13,16.7l40.7,75.3c0,11,0,22.6,0,27.1l-7.5,4.3l-11.9-22.2l-0.9,0.5l11.7,21.8l-3.4,2l-3.6-0.4l3.8,0.9l0,0
	l0.7,0.2l11.2-6.4c0,0.8,0,1.3,0,1.3c0,0.1,0,0.1,0.1,0.2l1.3,1.1l-1.3,0.7c-0.1,0-0.1,0.1-0.1,0.2v4.4v0.1l0.5,0.9l-0.2,0.1
	l0.4,0.1l0,0l0.7,0.2l-0.8-1.5l47.4-27.4h6.2l64,37l-3.1,5.1l-63.9-36.9h-0.1L296,130.6l0.4,0.1l43.2-24.9l63.8,36.8l-0.1,0.2
	c-0.1,0.1,0,0.3,0.1,0.3h0.1h0.1l17.2,10h0.1c0.1,0,0.1-0.1,0.1-0.1v-0.1l-17.2-10l3.1-5.1l13.9,8.1h0.1c0.1,0,0.1-0.1,0.1-0.1v-0.1
	l-13.9-8.1l0.1-0.2v-0.1v-3.4l13.6,7.8c0.1,0.1,0.3,0.1,0.3-0.1c0.1-0.1,0.1-0.3-0.1-0.3l0,0L420.9,141.3z M293.5,60.8
	c0-0.1,0-0.3-0.2-0.3l0,0l0,0c0.8-2.8,2.9-9.4,6.3-13.5l50.8-29.3l56.4,32.5v35.9c-0.1,0-0.2,0.1-0.2,0.2v44.1l-63.9-36.9h-0.1h-6.3
	h-0.1l-47.3,27.3c0-2.2,0-16.8,0-29.8C288.8,77,293.4,60.9,293.5,60.8z M288.9,121l47.4-27.3h6.2l64,37l-0.8,1.4L343,95.6h-0.1
	l-6.6,0.1h-0.1l-45.9,26.5L288.9,121z M342.5,100.1h-6.3h-0.1l-47.3,27.3v-4L336.3,96l6.5-0.1l63.7,37v4L342.5,100.1L342.5,100.1z"
	/>
<path d="M395,191.2c0.4-1.5,0.7-3,0.7-4.5c0-0.5,0-1,0-1.6v-1.8c0.2-8-4.7-15.7-13.9-21.6s-21.4-9.3-34.5-9.6
	c-12.3-0.3-24,2.2-33.2,7c-9,4.7-14.8,11.3-16.3,18.5L279.6,188l-4,1.8l-46.6-18l63.5-36.8h-0.4l-63.4,36.7l-4.8-1.8h-0.1l-1,0.2
	v-0.7l0.9-0.5l60.6-34.8l-0.8-0.1l-59.2,34l-1.3-0.8l57.9-33.4h-0.4L222.8,167v-9.4l44-25.4l0,0h-0.4l0,0l-1.2-0.1l-42.8,24.7
	c-0.3,0.2-0.5,0.5-0.5,0.9v9.6c0,0.3,0.2,0.6,0.4,0.8l0.5,0.3l-0.4,0.3c-0.3,0.2-0.5,0.5-0.5,0.9l0,0c-1.3,0.1-2.7,0.4-3.9,0.9
	l-1.6,0.9l-1.7,0.3c-0.1,0-0.2,0.1-0.3,0.1L189.6,186c-0.2,0.1-0.3,0.3-0.4,0.5l-0.4,0.8l-3.5,4.1c-0.1,0.1-0.2,0.3-0.2,0.5
	l-1.3,6.7c0,0.1,0,0.2,0,0.3l1.3,8.1c0,0.1,0,0.2,0.1,0.2l3.6,8.4c0,0.1,0.1,0.1,0.1,0.2l5.5,7.4c0.1,0.1,0.1,0.1,0.2,0.2l6.4,5.2
	l0.1,0.1l35,20.2l2.1-0.1l-36.6-21l-6.4-5.2l-5.5-7.4l-3.6-8.4l-1.3-8.2l1.3-6.7l3.4-3.9l-0.2,0.5v0.1h0.1h0.1l26.4-15.2l0,0l0,0
	l1-1.2v-0.1l1.4-0.8c0,0,0,0.1,0.1,0.1l-3.6,3.9c0,0,0,0,0,0.1l-1.3,6.7l0,0l1.3,8.2l0,0l3.7,8.4l5.5,7.4l0,0l6.5,5.2l65,37.5h0.1
	c0.1,0,0.1-0.1,0.1-0.1v-0.1l-65-37.5l-6.3-5.1l-5.4-7.3l-3.6-8.4l-1.3-8.1l1.3-6.6l3.7-4l5.3-1l51.2,19.6l-3.1,1.4
	c0-0.1,0-0.1-0.1-0.1L226.1,173H226l-5.1,0.6l0,0c-0.1-0.1-0.3-0.1-0.4,0l-3.6,3.5l-0.1,0.1l-1.2,5.9v0.1l0.4,2.2l0,0
	c0,0.1,0,0.1,0,0.2l0,0l0.8,4.9c0,0,0,0,0,0.1c0.8,1.8,3.6,7.7,4,8s3.1,4,4.9,6.4l0,0l6.3,5l67.9,39.2c0.1,0.1,0.3,0.1,0.3-0.1
	c0.1-0.1,0.1-0.3-0.1-0.3l0,0l-51.9-30l31.5-14.4l54.8-31.7c0,0,0,0,0-0.1l65.5,37.8v0.1l0.1,0.1h0.1h0.1l13.5,7.8l-52.5,30.3
	c-0.1,0.1-0.1,0.2-0.1,0.3c0.1,0.1,0.2,0.1,0.3,0.1l52.6-30.4c0.1,0,0.1-0.1,0.1-0.2v-16.1c0-0.1,0-0.2-0.1-0.2L395,191.2z
	 M216.5,172.2l-0.8,1l-0.7-0.7L216.5,172.2z M190.2,186.9v-0.1l24.5-14.1l0,0l0.8,0.8l-25.9,15L190.2,186.9z M360.1,171
	c10.8,2.2,19.5,7.2,23.6,13.6L360.1,171z M384.2,184.9c-4.2-6.9-13.4-12.2-24.7-14.3l-8.1-4.7c8.6,0.4,16.8,2.6,23.1,6.3
	s10.4,8.5,11.5,13.7L384.2,184.9z M386.2,186.1c-1.1-5.3-5.2-10.3-11.7-14.1s-14.9-6-23.7-6.4l-16.1-9.3h-0.1
	c3.5-0.5,7.1-0.7,10.6-0.7h2c13.1,0.3,25.3,3.7,34.4,9.6c8.5,5.5,13.3,12.5,13.8,19.9v2.4c0,0,0,0,0,0.1c-0.1,1.2-0.3,2.4-0.6,3.6
	L386.2,186.1z M314.2,159.2c9.1-4.8,20.9-7.2,33.1-7c13.1,0.3,25.3,3.7,34.4,9.6s13.9,13.4,13.8,21.3c-1.1-6.8-5.8-13.1-13.7-18.1
	c-9.1-5.9-21.4-9.3-34.5-9.6h-2.1c-22.1,0-40.9,8.7-46.3,21.5l-0.9,0.5C299.6,170.3,305.3,163.8,314.2,159.2L314.2,159.2z
	 M334.5,156.3L334.5,156.3l-35.2,20.3C303.9,166.2,317.5,158.6,334.5,156.3L334.5,156.3z M217.5,177.4l3.5-3.5v-0.1l5.1-0.6
	l45.6,18.3l-9.6,4.4l-4.6-2.7l-21.9-8.3c-0.1,0-0.2,0-0.2,0l-11.8,7l0,0l-1.4-0.8l-1.9-2.7l0,0l-3.6-2.8l-0.4-2.5L217.5,177.4z
	 M235.7,211.3v-8.5l5.8,3.4v8.6l-5.8-3.4C235.6,211.4,235.6,211.3,235.7,211.3L235.7,211.3z M241.6,205.3c-0.1,0-0.2,0.1-0.1,0.2
	v0.3l-5.8-3.4v-3.3c0-0.1,0-0.2-0.1-0.2l-6.7-3.9c2.1-1.5,4.3-2.9,6.6-4.1l16.6,9.6L241.6,205.3z M235.4,190.6
	c-2.4,1.2-4.6,2.6-6.8,4.2l-4.5-2.6l11.3-6.7V190.6z M252.4,200.3l-16.8-9.7v-5.2l21.7,8.2l4.3,2.5L252.4,200.3z M220.1,188.6
	l1.6,2.2c-2.5-1.5-4.3-2.6-4.5-2.7h-0.1l-0.4-2L220.1,188.6z M226.3,204.7c-0.6-0.8-4.6-6.2-5-6.5s-2.5-5-3.8-7.9l-0.3-1.7
	c2,1.2,11.8,7,18,10.6V211l-2.6-1.5L226.3,204.7z M241.9,215v-9.3l37.7-17.2v15.6L248,218.6L241.9,215z M279.9,204v-15.6l54.7-31.6
	l0,0v15.7h-0.1L279.9,204z M335.6,158.2L413,203l-11.9,6.9L335.6,172V158.2z M401.4,210l11.8-6.8v13.6L401.4,210z"/>
<path d="M292.5,111.5L292.5,111.5c0.1,0.1,0.2,0.1,0.3,0L333,88.3l0.1-0.1L335,85v-0.1c0-0.1,0-6,0.2-27c0-8.3,1.5-16.6,4.2-24.5
	c1-3,2.4-5.9,4.1-8.6c0-0.1,0-0.2,0-0.2c0-0.1,0-0.1,0-0.1l-0.9-0.5h-0.1l-40.3,23.2l-2.6,2.6c-6.1,10-8.4,33.1-8.5,33.3l-0.5,27.3
	c0,0,0,0.1,0.1,0.1L292.5,111.5z M332.7,87.9L294.5,110l0.5-25.3l39.8-23c-0.2,16.8-0.2,22.4-0.2,23.1L332.7,87.9z M334.7,58.3v1.3
	l-41.4,23.9l-0.1-1.3l0,0h0.1L334.7,58.3z M334.7,59.9v1.5l-39.9,23.1l-1.4-0.8L334.7,59.9z M339,33.2c-2.8,7.9-4.2,16.2-4.3,24.6
	h-0.1l-39.4,22.8c0.7-5.6,3.1-22.7,8.1-30.8L341.2,28C340.4,29.7,339.6,31.4,339,33.2z M291.4,83c0-0.2,2.3-23.3,8.4-33.2l2.6-2.5
	l40.2-23.2l0.6,0.4l0,0c-0.6,1-1.2,2-1.7,3.1l-38.2,22l0,0c-1.7,2.7-5.8,11.2-8.2,31.2l-1.9,1.1c-0.1,0-0.1,0.1-0.2,0.2v0.1l0.1,1.6
	l0,0c0,0,0,0.1,0.1,0.1l1.5,0.9l-0.5,25.4l-1.6,0.9l-0.1,0.1l-1.7-1L291.4,83z"/>
<path d="M347.1,84.5c0,0.1,0.1,0.1,0.2,0.1h0.1c0,0,0,0,0-0.1l34.8,3.7l0,0h0.1v-0.1V39.3c0,0,0-0.1-0.1-0.1l-25.9-15h-0.1l-1.7,1
	l0,0c-0.1-0.1-0.3,0-0.3,0.1l0,0c-0.1,0.1-8.4,15.6-8.6,33.1s-0.4,22.8-0.4,22.8v0.1L347.1,84.5z M380.8,80.7l-34.7-19.9v-1.2
	l34.5,19.9h0.1L380.8,80.7z M380,81.6l-33.9-19.4V61l34.6,19.9L380,81.6z M346.1,59v-0.7c0-0.4,0-0.8,0-1.2
	c2-14.8,6.3-25.7,8.4-29.5l25.1,14.5l0.1,36.2L346.1,59z M346.1,62.5l33.7,19.3l-0.1,4.9l-32.6-3.5c0,0,0,0-0.1,0l-1.3-2.2
	C345.8,80.5,345.9,75.9,346.1,62.5L346.1,62.5z M354.7,25.4v-0.1l1.6-0.9l25.8,14.9v48.6l-34.6-3.7l0,0l-0.4-0.7l32.6,3.5l0,0h0.1
	v-0.1l0.1-5.1l1-0.9l0,0v-0.1v-1.6c0-0.1,0-0.2-0.1-0.3l-0.8-0.5l-0.1-36.5c0,0,0-0.1-0.1-0.1l-25.3-14.6h-0.1c0,0-0.1,0-0.1,0.1
	c-0.1,0.1-5.3,9.8-8,26.7C347.4,44.2,350.2,34.5,354.7,25.4L354.7,25.4z"/>
<path d="M387,88.5c0.1,0,0.2-0.1,0.2-0.2v-0.4l8.7,0.9l0,0c0.1,0,0.1,0,0.1-0.1l0,0l0.3-37.1c0,0,0-0.1-0.1-0.1l-9.1-5.2v-4
	l10.8,6.2l1.8,3.2l-0.3,37l-1.8,1L387,88.5c-0.1,0-0.2,0-0.2,0.1l0,0c0,0.1,0,0.1,0.1,0.1l0,0l10.9,1.1l0,0h0.1l1.9-1.1l0.1-0.1
	l0.3-37.1c0,0,0,0,0-0.1l-1.9-3.2l0,0L387,41.8c0,0-0.1,0-0.2,0l0,0c-0.1,0-0.1,0.1-0.1,0.2l0.1,46.2
	C386.7,88.4,386.8,88.5,387,88.5L387,88.5z M396.1,51.7l-0.3,36.9l-8.6-0.8l-0.1-41.1L396.1,51.7z"/>
<path d="M212.3,181.5L212.3,181.5L212.3,181.5L212.3,181.5l0.4-1.8v-0.1h-0.1l-26.3,15.1l-0.1,0.1l-0.3,1.8c0,0,0,0.1,0.1,0.1h0.1
	h0.1L212.3,181.5L212.3,181.5z M212.1,181.2l-0.9-0.7l1.2-0.7L212.1,181.2z M186.4,194.9l24.6-14.2l1,0.8l-25.8,14.9L186.4,194.9z"
	/>
<path d="M187,206.9L187,206.9l1,2.4c0,0,0,0.1,0.1,0.1l0,0h0.1l26.4-15.2c0,0,0,0,0.1-0.1l0,0V194l-1.1-2.4l0,0l0,0h-0.1L187,206.9
	L187,206.9L187,206.9L187,206.9L187,206.9z M214.3,193.9l-1.5-0.5l0.6-1.4L214.3,193.9z M188.1,207.8l24.6-14.2l1.6,0.5l-25.9,15
	L188.1,207.8z M212.6,193.4L188,207.6l-0.6-0.7l25.9-14.9L212.6,193.4z M187.8,207.8l0.1,0.6l-0.4-0.9L187.8,207.8z"/>
<path d="M192.3,217.4L192.3,217.4l1.6,2.1h0.1h0.1l26.3-15.3l0,0l0,0l0,0l0,0l0,0l0,0l-1.6-2.1h-0.1l0,0h-0.1L192.3,217.4
	L192.3,217.4L192.3,217.4L192.3,217.4L192.3,217.4L192.3,217.4L192.3,217.4z M193.8,218.4l24.6-14.2h1.5l-25.8,15L193.8,218.4z
	 M218.5,204l0.4-1.6l1.2,1.6H218.5z M218.2,204l-24.6,14.2l-1-0.9l26-15L218.2,204z M193.5,218.5l0.1,0.2l-0.4-0.5L193.5,218.5z"/>
<path d="M201.9,227.1L201.9,227.1l1.8,1.2h0.1h0.1l26.4-15.3l0,0c0,0,0,0,0-0.1l0,0l0,0l0,0l0,0l-1.9-1.1l0,0c0,0,0,0-0.1,0l0,0l0,0
	L201.9,227.1L201.9,227.1L201.9,227.1L201.9,227.1L201.9,227.1L201.9,227.1z M203.9,228l24.6-14.2l0.2-0.1L203.9,228L203.9,228z
	 M228.6,213.4l-0.1-1.4l1.5,0.9L228.6,213.4z M228.3,213.5l-24.6,14.2l-1.6-0.7l26-15L228.3,213.5z M203.7,228L203.7,228l-0.1-0.1
	L203.7,228z"/>
<path d="M211.4,232.6L211.4,232.6l1.8,1.2h0.1h0.1l26.4-15.3l0,0c0,0,0,0,0-0.1l0,0l0,0l0,0l0,0l-1.8-1.3l0,0c0,0,0,0-0.1,0l0,0l0,0
	l-26.4,15.2l0,0l0,0l0,0l0,0c0,0-0.1,0-0.2,0C211.3,232.5,211.4,232.6,211.4,232.6L211.4,232.6z M213.4,233.5l24.6-14.2l0.2-0.1
	L213.4,233.5L213.4,233.5z M238.1,219l-0.1-1.4l1.5,0.9L238.1,219z M237.9,219.1l-24.6,14.2l-1.6-0.7l26-15L237.9,219.1z
	 M213.2,233.5L213.2,233.5l-0.1-0.1L213.2,233.5z"/>
<path d="M220.9,238.1L220.9,238.1l1.8,1.2h0.1h0.1l26.4-15.3l0,0c0,0,0,0,0-0.1l0,0l0,0l0,0l0,0l-1.9-1.1l0,0c0,0,0,0-0.1,0l0,0l0,0
	L220.9,238.1L220.9,238.1L220.9,238.1L220.9,238.1L220.9,238.1C221,238,220.9,238.1,220.9,238.1z M222.9,238.9l24.6-14.2l0.2-0.1
	L222.9,238.9L222.9,238.9z M247.6,224.4l-0.1-1.4l1.5,0.9L247.6,224.4z M247.4,224.5l-24.6,14.2l-1.6-0.7l26-15L247.4,224.5z
	 M222.7,239L222.7,239l-0.1-0.1L222.7,239z"/>
<path d="M230.4,243.6L230.4,243.6l1.8,1.2h0.1h0.1l26.4-15.3l0,0c0,0,0,0,0-0.1l0,0l0,0l0,0l0,0l-1.9-1.2l0,0c0,0,0,0-0.1,0l0,0l0,0
	l-26.4,15.2l0,0l0,0l0,0l0,0C230.5,243.4,230.4,243.5,230.4,243.6L230.4,243.6z M232.4,244.4l24.7-14.2l0.2-0.1L232.4,244.4
	L232.4,244.4z M257.2,229.9l-0.1-1.4l1.5,0.9L257.2,229.9z M257,230l-24.6,14.2l-1.6-0.7l26-15L257,230z M232.3,244.4L232.3,244.4
	l-0.1-0.1L232.3,244.4z"/>
<path d="M268.4,235L268.4,235L268.4,235L268.4,235L268.4,235L268.4,235l-1.9-1.2l0,0c0,0,0,0-0.1,0l0,0l0,0l-26.2,15.1
	c0,0,0,0.1,0,0.2c0,0,0.1,0,0.2,0l26-15l0.1,1.5l-22.9,13.2c-0.1,0-0.1,0.1,0,0.2c0,0,0,0,0.1,0h0.1l22.9-13.2l0.2-0.1l-22.8,13.2
	c-0.1,0-0.1,0.1,0,0.2c0,0,0,0,0.1,0h0.1l24.2-14L268.4,235z M266.6,234l1.5,0.9l-1.3,0.5L266.6,234z"/>
<path d="M277.9,240.4L277.9,240.4L277.9,240.4L277.9,240.4l-1.9-1.2l0,0c0,0,0,0-0.1,0l0,0l0,0l-16.6,9.6c0,0,0,0.1,0,0.2
	c0,0,0.1,0,0.2,0l16.4-9.5l0.1,1.5l-13.4,7.8c-0.1,0-0.1,0.1,0,0.2c0,0,0,0,0.1,0h0.1l13.5-7.8l0.2-0.1l-13.2,7.7
	c-0.1,0-0.1,0.1,0,0.2c0,0,0,0,0.1,0h0.1l14.6-8.5l0,0C278,240.5,278,240.5,277.9,240.4L277.9,240.4L277.9,240.4z M276,239.5
	l1.5,0.9l-1.3,0.5L276,239.5z"/>
<path d="M287.5,245.9L287.5,245.9L287.5,245.9L287.5,245.9l-1.9-1.1l0,0c0,0,0,0-0.1,0l0,0l0,0l-7.1,4.1c0,0,0,0.1,0,0.2
	c0,0,0.1,0,0.2,0l7-4l0.1,1.5l-4,2.3c-0.1,0-0.1,0.1,0,0.2c0,0,0,0,0.1,0h0.1l4-2.3l0.2-0.1l-3.8,2.2c-0.1,0-0.1,0.1,0,0.2
	c0,0,0,0,0.1,0h0.1l5.2-3l0,0c0,0,0,0,0-0.1l0,0L287.5,245.9z M285.7,245l1.5,0.9l-1.3,0.5L285.7,245z"/>
<path d="M314.8,140L314.8,140L314.8,140L314.8,140c0.1,0,0.1-0.1,0.1-0.1v-0.1v-0.1v-0.1l0,0l0,0l0,0l0,0c0,0,0,0,0,0.1
	C314.9,139.8,314.9,139.9,314.8,140L314.8,140L314.8,140v-0.1l0,0v-0.1c0,0,0,0,0-0.1v-0.1c0,0,0.1,0,0.1,0.1h0.1l0,0l0,0l0,0l0,0
	l0,0l0,0h-0.1h-0.1h-0.1c0,0,0,0-0.1,0.1v0.1v0.1v0.1l0,0l0,0l0.1,0.1c0,0,0.1,0.1,0.2,0.1L314.8,140z"/>
<path d="M320.8,136.8l1.8,1.1l0.2,0.1h0.2c0,0,0.1-0.1,0-0.1v-1.1c0,0,0,0,0-0.1l0,0c0,0,0-0.1-0.1-0.1l-2-1.2h-0.1l0,0
	c0,0,0,0,0,0.1l0,0l0,0c0,0.1,0,0.6,0,1v0.1V136.8C320.8,136.7,320.8,136.7,320.8,136.8z M320.8,136.6c0,0,0-0.9,0-1.1l2,1.2
	l0.1,0.1v1.1l-0.1-0.1l-1.9-1.2l0,0C320.9,136.7,320.8,136.6,320.8,136.6L320.8,136.6z"/>
<path d="M131.6,106c0.3,0.5,0.8,0.8,1.3,1.1c0.3,0.1,0.6,0.2,0.9,0.2c0.3,0,0.7-0.2,0.9-0.4c0.3-0.5,0.5-1.1,0.3-1.6
	c-0.1-0.5-0.3-1-0.5-1.4l0,0h-0.1c0-0.1,0-0.3-0.2-0.3c-0.1,0-0.1,0-0.2,0l-1.7,1c-0.1,0.1-0.1,0.2-0.1,0.3c0.1,0.1,0.2,0.1,0.3,0.1
	l1.3-0.7c0,0,0,0,0,0.1c0.5,0.9,0.4,2-0.1,2.2h-0.1c-0.5-0.2-1-0.6-1.2-1.1c-0.5-0.6-0.7-1.4-0.7-2.2c0.1-0.1,0.2-0.2,0.3-0.3
	c0.4-0.2,0.8,0,1.3,0.5c0.1,0,0.1,0,0.2,0v-0.1c-0.4-0.5-1-0.7-1.6-0.5l0,0c0.1-0.2,0.4-0.4,0.6-0.3c0.4,0.1,0.9,0.3,1.2,0.6h0.1
	v-0.1l0,0c-0.3-0.4-0.7-0.8-1.2-0.9c-0.3-0.1-0.6-0.1-0.9,0.1c-0.3,0.2-0.5,0.4-0.6,0.7c-0.2,0.5-0.2,1.1-0.1,1.7
	C131,105,131.2,105.5,131.6,106z M134,104.2L134,104.2l0.2-0.2l0,0l0,0c0.2,0.4,0.3,0.9,0.3,1.4c0,0.4-0.1,0.8-0.4,1.1H134
	c0.2-0.2,0.3-0.5,0.3-0.8C134.4,105.2,134.3,104.6,134,104.2L134,104.2z"/>
<path d="M191,144.7c0.3,0.5,0.8,0.8,1.3,1.1c0.3,0.1,0.6,0.2,0.9,0.2c0.3,0,0.7-0.2,0.9-0.4c0.3-0.5,0.5-1.1,0.3-1.6
	c-0.1-0.5-0.3-1-0.5-1.4l0,0c0,0-0.1-0.1-0.1,0c0,0-0.1,0.1,0,0.1c0.2,0.4,0.3,0.9,0.3,1.4c0,0.4-0.1,0.8-0.4,1.1h-0.1
	c0.2-0.2,0.3-0.5,0.3-0.8c0-0.5-0.1-1.1-0.4-1.5c0-0.1-0.1-0.1-0.2-0.1l0,0c-0.1,0-0.1,0.1-0.1,0.2c0.2,0.4,0.3,0.9,0.3,1.4
	c0,0.3-0.1,0.6-0.4,0.8H193c-0.5-0.2-1-0.6-1.2-1.1c-0.1-0.1-0.1-0.2-0.1-0.3l1.2-0.7c0.1-0.1,0.1-0.2,0.1-0.3
	c-0.1-0.1-0.2-0.1-0.3-0.1l-1.2,0.7c-0.2-0.5-0.3-1-0.3-1.5c0.1-0.1,0.1-0.2,0.2-0.2c0.3-0.2,0.8,0,1.3,0.5c0.1,0,0.1,0,0.2,0v-0.1
	c-0.4-0.5-1-0.7-1.6-0.5l0,0c0.1-0.2,0.4-0.4,0.6-0.3c0.4,0.1,0.9,0.3,1.2,0.6h0.1v-0.1l0,0c-0.3-0.4-0.7-0.8-1.2-0.9
	c-0.3-0.1-0.6-0.1-0.9,0.1c-0.3,0.2-0.5,0.4-0.6,0.7c-0.2,0.5-0.2,1.1-0.1,1.7C190.5,143.7,190.7,144.3,191,144.7z"/>
<path d="M136.6,109.1c0.3,0.2,0.6,0.1,0.9-0.1c0.4-0.5,0.1-1-0.1-1.4l0,0c0.2,0.4,0.2,0.8,0,1.2c-0.2,0.2-0.6-0.2-0.8-0.5
	s-0.4-0.7-0.3-1.1c0-0.2,0.2-0.3,0.4-0.3s0.4,0.1,0.6,0.3c0,0,0,0,0.1,0c-0.1-0.2-0.3-0.4-0.6-0.4c-0.3-0.1-0.6,0.1-0.7,0.4
	c-0.2,0.5-0.1,1.1,0.2,1.5C136.2,108.8,136.4,108.9,136.6,109.1z"/>
<path d="M189.9,142.3c-0.1-0.3-0.2-0.5-0.3-0.7l0,0C189.8,141.8,189.8,142.1,189.9,142.3c-0.1,0.2-0.1,0.5-0.3,0.5s-0.3,0-0.5-0.1
	s-0.3-0.3-0.5-0.5c-0.3-0.3-0.5-0.8-0.4-1.2c0-0.5,0.6-0.2,1,0.1c-0.2-0.2-0.4-0.4-0.6-0.5c-0.1-0.1-0.3-0.1-0.5,0
	c-0.1,0.1-0.2,0.2-0.3,0.4c-0.2,0.6,0,1.2,0.4,1.6c0.2,0.2,0.4,0.4,0.6,0.5c0.3,0.2,0.6,0.2,0.9,0
	C189.9,142.9,190,142.6,189.9,142.3z"/>
<path d="M155.6,117.1c0.2,0.1,0.4,0.2,0.6,0.2c0.1,0,0.2,0,0.3-0.1c0.2-0.1,0.3-0.3,0.4-0.5l0.1-0.1l0,0l0.1-0.1l0,0
	c0.4-0.5,0.4-1.1,0.1-1.6c-0.1-0.3-0.4-0.6-0.7-0.8c-0.2-0.1-0.4-0.2-0.6-0.1l0,0l-0.2,0.1l0,0l-0.1,0.1c-0.2-0.1-0.4-0.1-0.6,0
	c-0.3,0.2-0.5,0.5-0.4,0.8C154.6,115.9,154.9,116.6,155.6,117.1L155.6,117.1z M155.7,114.5L155.7,114.5c0.1,0.1,0.1,0.1,0.2,0.2
	l0.1,0.2h-0.2l0.3,0.4l0.1,0.2l-0.1,0.3h0.3h0.1l0,0l0.2,0.4c0,0.1,0,0.1,0,0.2l0,0C155.9,116,155.4,115.2,155.7,114.5L155.7,114.5z
	 M156.6,115.1L156.6,115.1L156.6,115.1L156.6,115.1z M155.4,114.6c-0.1,0.4,0,0.8,0.2,1.1c0.2,0.4,0.4,0.7,0.8,0.8
	c-0.1,0-0.2,0-0.3-0.1c-0.5-0.4-0.8-0.9-0.8-1.5C155.3,114.9,155.3,114.8,155.4,114.6z M157,116.3l-0.1-0.2c0-0.1,0-0.2,0-0.3h0.2
	C157.2,116,157.1,116.2,157,116.3L157,116.3z M157.1,115.6l-0.1-0.2l-0.1-0.2v-0.1l0,0C157,115.3,157.1,115.4,157.1,115.6
	L157.1,115.6z M156.8,114.9L156.8,114.9l-0.2-0.1l-0.4-0.5l0.2,0.1C156.5,114.6,156.7,114.7,156.8,114.9z M156.2,114.3v0.2l0,0
	l-0.1-0.2H156.2z M155.1,114.4L155.1,114.4h0.1c-0.2,0.1-0.3,0.4-0.3,0.6c0,0.7,0.3,1.4,0.9,1.8c0.2,0.1,0.3,0.2,0.5,0.2h0.1
	c0,0,0,0.1-0.1,0.1c-0.2,0.1-0.5,0-0.6-0.1c-0.6-0.4-0.9-1.1-0.9-1.8C154.8,114.8,154.9,114.6,155.1,114.4L155.1,114.4z"/>
<path d="M161.4,68.8c0.3,0.3,0.7,0.5,1.1,0.7l2.1,1.4l4.2,2.7l8.1,5.3l-0.1,0.1c-0.1,0.1-0.2,0.2-0.1,0.3c0.1,0.1,0.2,0.2,0.3,0.1
	l0,0l0.4-0.2c0.2,0.1,0.4,0.1,0.6,0.1c0.2-0.1,0.3-0.3,0.3-0.6l3.5-2c-0.1,1.5-0.1,2.9-0.2,4.4l0,0c0,0.5,0.2,1,0.5,1.3
	s0.7,0.5,1.1,0.7l2.1,1.4l4.2,2.7l8.5,5.4c0.2,0.2,0.5,0.2,0.7,0.1c0.3-0.2,0.3-0.5,0.3-0.7v-1.2l0.1-2.4l0.2-4.8l0,0
	c-0.1-0.6-0.3-1.1-0.8-1.4l0,0l-11.9-7.7l-3-1.9l-0.7-0.5c-0.1-0.1-0.3-0.1-0.5-0.2c-0.2,0-0.4,0.1-0.4,0.3
	c-0.1,0.6-0.1,1.2-0.1,1.8s-0.1,1.4-0.1,2.1l-3.5,2v-0.7l0.1-2.4l0.2-4.8l0,0c-0.1-0.6-0.3-1.1-0.8-1.4l0,0L165.9,61l-2.9-2
	l-0.7-0.5c-0.1-0.1-0.3-0.1-0.5-0.2c-0.2,0-0.4,0.1-0.4,0.3c-0.1,0.6-0.1,1.2-0.1,1.8c-0.2,2.4-0.3,4.7-0.4,7.1l0,0
	C160.8,68,161,68.5,161.4,68.8z M189.7,86.9l-4.2-2.8l-2.1-1.4c-0.3-0.2-0.7-0.5-1-0.7s-0.4-0.6-0.4-0.9l0,0
	c0.1-1.6,0.1-3.1,0.2-4.6c0.1-0.1,0.1-0.2,0.1-0.3c0,0,0,0-0.1,0c0-0.7,0-1.4,0-2.1c0-0.5,0-1.1,0-1.6c0-0.1,0.1-0.1,0.1-0.2
	c0.1-0.1,0.3-0.1,0.4,0l2.7,1.8c-0.1,0-0.1,0-0.2,0l-1.7,1c-0.1,0.1-0.1,0.2-0.1,0.3c0.1,0.1,0.2,0.1,0.3,0.1l1.7-1
	c0.1-0.1,0.2-0.2,0.1-0.3l12.7,8.3c0.3,0.3,0.6,0.7,0.6,1.1l-0.3,8.6c0,0,0,0.2-0.1,0.3l0,0c-0.1,0-0.2-0.1-0.3-0.1L189.7,86.9z
	 M161.2,67.6c0.1-2.4,0.2-4.7,0.2-7.1c0-0.5,0-1.1,0-1.6c0-0.1,0.1-0.1,0.1-0.2c0.1-0.1,0.3-0.1,0.4,0L177.6,69
	c0.3,0.3,0.6,0.7,0.6,1.1l-0.3,8.2l-0.7,0.4l-8.2-5.4l-4.2-2.8l-2.1-1.4c-0.3-0.2-0.7-0.5-1-0.7C161.4,68.3,161.3,67.9,161.2,67.6
	L161.2,67.6z"/>
<path d="M133.6,86c0.3,0.3,0.7,0.6,1.1,0.8c0.5,0.2,1.1,0,1.4-0.4c0.2-0.4,0.2-0.9,0.1-1.3l-0.1-0.1c-0.1,0-0.1,0-0.1,0.1
	c0,0.3-0.1,0.6-0.2,0.9c0.1-0.4,0.1-0.7,0-1.1c0-0.1-0.1-0.1-0.2-0.1l0,0c-0.1,0-0.1,0.1-0.1,0.2l0,0c0.2,0.4,0.1,0.9-0.2,1.2
	c-0.1,0-0.2-0.1-0.2-0.2c0.2-0.3,0.2-0.7,0.1-1.1c0-0.1-0.1-0.1-0.2-0.1c-0.1,0-0.1,0.1-0.1,0.2c0.1,0.3,0.1,0.6,0,0.9
	c-0.1-0.1-0.2-0.1-0.2-0.2c0-0.2,0-0.3-0.1-0.5c0-0.1-0.1-0.1-0.2-0.1c-0.1,0-0.1,0.1-0.1,0.1c-0.1-0.2-0.3-0.5-0.4-0.7v-0.1
	c0.1,0.1,0.2,0.3,0.2,0.5l0.1,0.1h0.1c0.1,0,0.1-0.1,0.1-0.2l0,0c-0.1-0.4-0.4-0.7-0.6-1c0-0.1,0-0.3,0-0.4c0.5,0.3,0.8,0.7,1,1.2
	l0.1,0.1h0.1c0.1,0,0.1-0.1,0.1-0.2l0,0c-0.2-0.6-0.6-1.1-1.2-1.4L134,83c0.1,0,0.2,0,0.3,0.1c0.6,0.3,1,0.7,1.2,1.3
	c0,0.1,0.1,0.1,0.1,0.1h0.1c0.1,0,0.1-0.1,0.1-0.2l0,0c-0.2-0.6-0.7-1.1-1.3-1.4c0.2,0,0.3,0.1,0.5,0.2c0.3,0.2,0.6,0.4,0.8,0.8l0,0
	c0.1,0,0.1,0,0.2,0v-0.1c-0.2-0.4-0.5-0.7-0.7-1c-0.3-0.4-0.8-0.5-1.3-0.4c-0.3,0.1-0.5,0.3-0.6,0.5s-0.2,0.5-0.2,0.7
	c-0.1,0.9,0.2,1.8,0.8,2.5L133.6,86z"/>
<path d="M217.7,53.4l-0.3,0.3h-0.3l-0.3,0.3h-0.2l-0.3,0.2H216l-0.2,0.2h-0.1l-0.2,0.1c-0.6,0.3-0.6,1.3-0.1,2.2
	c0.2,0.4,0.5,0.7,0.9,1c0.2,0.2,0.4,0.3,0.6,0.3c0.1,0,0.3,0,0.4-0.1l0.1-0.1l0.2-0.2l0.4-0.1l0.1-0.2l0.4-0.1l0.1-0.2l0.4,0
	l0.1-0.2l0.4-0.1l0.2-0.2l0.2-0.1c0.4,0.4,0.9,0.6,1.5,0.6c0.3,0,0.5-0.1,0.8-0.2l0.3-0.2c0,0,0,0,0.1-0.1l1.9-1.1l0,0
	c1-0.5,1-2.2,0.2-3.7s-2.3-2.3-3.2-1.8l0,0l-1.9,1.1h-0.1c0,0-0.2,0.1-0.4,0.2c-0.6,0.4-0.9,1.1-0.8,1.8l-0.2,0.2L217.7,53.4z
	 M217.9,53.8h0.2c0,0.3,0,0.5,0.1,0.8h0.1c0.1,0.2,0.1,0.4,0.2,0.6c0.2,0.3,0.4,0.6,0.7,0.8c-0.1-0.1-0.2-0.2-0.3-0.3l-0.1,0.1
	c0.2,0.2,0.4,0.3,0.6,0.5l-0.1,0.1h-0.1c-0.1,0-0.2-0.1-0.2-0.1c-0.3-0.2-0.6-0.5-0.7-0.8C217.9,54.9,217.8,54.4,217.9,53.8
	L217.9,53.8z M216.3,54.7h0.1c0,0.3,0,0.5,0.1,0.8h0.1c0-0.2-0.1-0.3-0.1-0.5c0,0.4,0.2,0.7,0.3,1.1c0.2,0.3,0.4,0.6,0.7,0.8
	c-0.2-0.1-0.3-0.2-0.4-0.4l-0.1,0.1c0.2,0.2,0.4,0.4,0.6,0.5v0.1h-0.1c-0.1,0-0.2-0.1-0.3-0.1c-0.3-0.2-0.6-0.5-0.8-0.8
	C216.3,55.8,216.2,55.3,216.3,54.7L216.3,54.7z M215.8,55L215.8,55L215.8,55c0.1,0.2,0.1,0.5,0.2,0.7h0.1c0.1,0.2,0.2,0.4,0.3,0.6
	c0.1,0.2,0.2,0.3,0.3,0.4l-0.1,0.1c0.2,0.2,0.4,0.4,0.7,0.5l-0.1,0.1l0,0C216.3,57.1,215.7,56.1,215.8,55L215.8,55z M218.3,56.8
	h-0.1c-0.1,0-0.2-0.1-0.3-0.1c-0.3-0.2-0.6-0.5-0.8-0.8s-0.3-0.7-0.3-1.1c0-0.1,0-0.2,0-0.3l0,0h0.2c0,0.2,0,0.5,0.1,0.7h0.1
	c0.1,0.2,0.1,0.4,0.2,0.6c0.1,0.2,0.2,0.3,0.4,0.5l-0.1,0.1C217.8,56.5,218,56.7,218.3,56.8L218.3,56.8z M217.7,54.4L217.7,54.4
	C217.7,54.5,217.7,54.5,217.7,54.4L217.7,54.4z M217.7,54.9h0.1l0,0c0.1,0.2,0.2,0.4,0.3,0.6c0.2,0.4,0.5,0.7,0.8,0.9h0.1l0,0
	c-0.2-0.1-0.4-0.3-0.5-0.4l-0.1,0.1c0.2,0.2,0.3,0.3,0.6,0.5v0.1h-0.1c-0.5-0.2-0.8-0.5-1.1-1c-0.3-0.4-0.4-0.9-0.2-1.4h0.2
	C217.6,54.4,217.6,54.6,217.7,54.9L217.7,54.9z M218.5,53.7L218.5,53.7c0.1,0.5,0.3,0.9,0.5,1.3c0.2,0.3,0.4,0.6,0.7,0.9l0,0
	c-0.4-0.2-0.8-0.5-1-0.9c-0.2-0.3-0.3-0.7-0.3-1.1C218.4,53.8,218.4,53.7,218.5,53.7L218.5,53.7z M220.2,55.9L220.2,55.9L220.2,55.9
	H220c-0.3-0.3-0.5-0.6-0.8-1s-0.5-0.9-0.6-1.4l0.1-0.1v-0.1c0-0.4,0-0.8,0.2-1.2c-0.2,0.9,0,1.9,0.6,2.7c0.4,0.8,1.1,1.4,1.9,1.8
	C221,56.5,220.5,56.3,220.2,55.9L220.2,55.9z M220.8,52.2c0.8,0.7,1.3,1.6,1.5,2.6l-1.4,0.8l0,0l-1.4-2.7L220.8,52.2z M222.4,55
	c0.3,0,0.6,0.1,0.9,0.2c0.2,0.1,0.3,0.1,0.4,0.2l-1.3,0.8l-1.3-0.4L222.4,55z M220.1,55.2c-0.1-0.2-0.3-0.3-0.4-0.5
	c-0.2-0.3-0.3-0.7-0.5-1.1L220.1,55.2z M221.8,56.4L221.8,56.4c-0.1,0-0.2-0.1-0.3-0.1L221.8,56.4z M222.5,54.8
	c0-0.1-0.1-0.3-0.2-0.6c0.2,0.3,0.5,0.5,0.7,0.7C222.8,54.8,222.6,54.7,222.5,54.8L222.5,54.8z M220.9,52c0.1-0.1,0.2-0.3,0.3-0.4
	c0,0.3,0.1,0.7,0.2,1C221.1,52.3,221,52.1,220.9,52z M221.1,51c-0.1,0.3-0.2,0.6-0.4,0.9l-1.2,0.7l0.3-1.1l1.4-0.8
	C221.1,50.8,221.1,50.9,221.1,51L221.1,51z M215.6,55.9L215.6,55.9c0.1,0.2,0.2,0.4,0.3,0.6c0.1,0.2,0.2,0.3,0.3,0.5l0,0
	c-0.1-0.1-0.2-0.3-0.3-0.5S215.7,56.1,215.6,55.9L215.6,55.9z M224.2,52c0.7,1.2,0.7,2.6,0,3c-0.1,0-0.3,0-0.4,0
	c-0.8-0.3-1.5-0.9-1.9-1.7c-0.4-0.6-0.6-1.2-0.6-1.9c0-0.3,0.1-0.6,0.3-0.9l0.1-0.1l0,0C222.3,50.1,223.5,50.7,224.2,52z"/>
<path d="M62.1,144.7l-0.9,0.5c-0.1,0.1-0.1,0.2-0.1,0.3c0.1,0.1,0.2,0.1,0.3,0.1l0.9-0.5c0.1-0.1,0.1-0.2,0.1-0.3
	C62.4,144.7,62.2,144.6,62.1,144.7z"/>
<path d="M64,144.1L64,144.1l5.2-2.9c0.1-0.1,0.1-0.2,0.1-0.3c-0.1-0.1-0.2-0.1-0.3-0.1l-5.1,2.9c-0.1,0.1-0.2,0.2-0.1,0.3
	C63.8,144.1,63.9,144.2,64,144.1L64,144.1z"/>
<path d="M123.7,109.4l-1.7,1c-0.1,0.1-0.2,0.2-0.1,0.3s0.2,0.2,0.3,0.1l0,0l1.7-1c0.1-0.1,0.2-0.2,0.1-0.3S123.9,109.3,123.7,109.4
	L123.7,109.4z"/>
<path d="M213,58.5c-0.1-0.1-0.2-0.2-0.3-0.1l-5.1,2.9c-0.1,0.1-0.2,0.2-0.1,0.3c0.1,0.1,0.2,0.2,0.3,0.1l0,0l5.1-2.9
	C213,58.8,213.1,58.6,213,58.5z"/>
<path d="M110,117.2l-5.1,2.9c-0.1,0.1-0.2,0.2-0.1,0.3s0.2,0.2,0.3,0.1l0,0l5.1-2.9c0.1-0.1,0.1-0.2,0.1-0.3
	C110.2,117.2,110.1,117.2,110,117.2z"/>
<path d="M111.6,116.6c0.1,0.1,0.2,0.2,0.3,0.1l1.7-1c0.1-0.1,0.2-0.2,0.1-0.3s-0.2-0.2-0.3-0.1l0,0l-1.7,1
	C111.6,116.3,111.6,116.5,111.6,116.6z"/>
<path d="M120.3,111.3l-5.1,2.9c-0.1,0.1-0.2,0.2-0.1,0.3s0.2,0.2,0.3,0.1l0,0l5.1-2.9c0.1-0.1,0.2-0.2,0.1-0.3
	S120.4,111.3,120.3,111.3L120.3,111.3z"/>
<path d="M154.5,91.7l-1.7,1c-0.1,0.1-0.1,0.2-0.1,0.3c0.1,0.1,0.2,0.1,0.3,0.1l1.7-1c0.1-0.1,0.1-0.2,0.1-0.3
	C154.7,91.7,154.6,91.7,154.5,91.7z"/>
<path d="M101.4,122.5c0.1,0.1,0.2,0.2,0.3,0.1l1.7-1c0.1-0.1,0.2-0.2,0.1-0.3s-0.2-0.2-0.3-0.1l0,0l-1.7,1
	C101.3,122.2,101.3,122.4,101.4,122.5z"/>
<path d="M205.8,62.3l-1.7,1c-0.1,0.1-0.1,0.2-0.1,0.3c0.1,0.1,0.2,0.1,0.3,0.1l1.7-1c0.1-0.1,0.1-0.2,0.1-0.3S205.9,62.3,205.8,62.3
	z"/>
<path d="M166.6,85.3h0.1l5.1-2.9c0.1-0.1,0.1-0.2,0.1-0.3c-0.1-0.1-0.2-0.1-0.3-0.1l-5.1,2.9c-0.1,0.1-0.2,0.2-0.1,0.3
	C166.4,85.3,166.5,85.4,166.6,85.3L166.6,85.3z"/>
<path d="M163.2,87.3h0.1l1.7-1c0.1-0.1,0.2-0.2,0.1-0.3c-0.1-0.1-0.2-0.2-0.3-0.1l0,0l-1.7,1c-0.1,0.1-0.2,0.2-0.1,0.3
	C163,87.3,163.1,87.4,163.2,87.3L163.2,87.3z"/>
<path d="M197.2,67.6c0.1,0.1,0.2,0.2,0.3,0.1l5.1-2.9c0.1-0.1,0.1-0.2,0.1-0.3c-0.1-0.1-0.2-0.1-0.3-0.1l-5.1,2.9
	C197.2,67.3,197.1,67.5,197.2,67.6z"/>
<path d="M84.5,132.4L84.5,132.4l5.2-2.9c0.1-0.1,0.1-0.2,0.1-0.3c-0.1-0.1-0.2-0.1-0.3-0.1l-5.1,2.9c-0.1,0.1-0.2,0.2-0.1,0.3
	C84.3,132.4,84.4,132.4,84.5,132.4L84.5,132.4z"/>
<path d="M91.3,128.5L91.3,128.5l1.8-1c0.1-0.1,0.1-0.2,0.1-0.3c-0.1-0.1-0.2-0.1-0.3-0.1l-1.7,1c-0.1,0.1-0.2,0.2-0.1,0.3
	C91.1,128.5,91.2,128.5,91.3,128.5L91.3,128.5z"/>
<path d="M70.8,140.2L70.8,140.2l1.8-1c0.1-0.1,0.1-0.2,0.1-0.3c-0.1-0.1-0.2-0.1-0.3-0.1l-1.7,1c-0.1,0.1-0.2,0.2-0.1,0.3
	C70.6,140.2,70.7,140.3,70.8,140.2L70.8,140.2z"/>
<path d="M144.2,97.6l-1.7,1c-0.1,0.1-0.1,0.2-0.1,0.3c0.1,0.1,0.2,0.1,0.3,0.1l1.7-1c0.1-0.1,0.2-0.2,0.1-0.3
	C144.6,97.6,144.4,97.5,144.2,97.6C144.3,97.6,144.3,97.6,144.2,97.6z"/>
<path d="M195.6,68.2l-1.7,1c-0.1,0.1-0.1,0.2-0.1,0.3c0.1,0.1,0.2,0.1,0.3,0.1l1.7-1c0.1-0.1,0.2-0.2,0.1-0.3
	C195.9,68.2,195.7,68.1,195.6,68.2L195.6,68.2z"/>
<path d="M214.3,57.8c0.1,0.1,0.2,0.2,0.3,0.1l0.9-0.5c0.1-0.1,0.1-0.2,0.1-0.3c-0.1-0.1-0.2-0.1-0.3-0.1l-0.9,0.5
	C214.3,57.5,214.2,57.7,214.3,57.8z"/>
<path d="M276.5,92.6l-0.3,0.3H276l-0.3,0.3h-0.2l-0.3,0.2h-0.3l-0.2,0.2h-0.1l-0.2,0.1c-0.6,0.3-0.6,1.3,0,2.2
	c0.2,0.4,0.5,0.7,0.9,1c0.2,0.1,0.4,0.2,0.6,0.2c0.1,0,0.3,0,0.4-0.1l0.1-0.1l0.2-0.2l0.4-0.1l0.1-0.2l0.4-0.1l0.1-0.2L278,96
	l0.1-0.2l0.4-0.1l0.2-0.2l0.2-0.1c0.4,0.4,0.9,0.6,1.5,0.6c0.3,0,0.5-0.1,0.8-0.2l0.3-0.2c0,0,0,0,0.1-0.1l1.9-1.1l0,0
	c1-0.6,1-2.2,0.2-3.7s-2.3-2.3-3.2-1.8l0,0l-1.9,1.1h-0.1c0,0-0.2,0.1-0.4,0.2c-0.6,0.4-0.9,1.1-0.8,1.8l-0.2,0.2L276.5,92.6z
	 M276.8,93h0.2c0,0.3,0,0.5,0.1,0.8h0.1c0.1,0.4,0.3,0.8,0.6,1.1l0,0l-0.1,0.1c0.2,0.2,0.4,0.3,0.6,0.5l-0.1,0.1h-0.1
	C277.2,95.1,276.6,94.1,276.8,93L276.8,93z M275.2,93.9h0.1c0,0.3,0,0.5,0.1,0.8h0.1c0-0.2-0.1-0.3-0.1-0.5c0,0.4,0.2,0.7,0.3,1.1
	c0.2,0.3,0.4,0.6,0.7,0.8c-0.2-0.1-0.3-0.2-0.4-0.4l-0.1,0.1c0.2,0.2,0.4,0.4,0.6,0.5v0.1h-0.1c-0.1,0-0.2-0.1-0.3-0.1
	c-0.3-0.2-0.6-0.5-0.8-0.8C275.2,95,275.1,94.5,275.2,93.9L275.2,93.9z M274.7,94.2L274.7,94.2L274.7,94.2c0.1,0.2,0.1,0.5,0.2,0.7
	h0.1c0.1,0.2,0.2,0.4,0.3,0.6c0.1,0.2,0.2,0.3,0.3,0.4l-0.1,0.1c0.2,0.2,0.4,0.4,0.7,0.5l-0.1,0.1l0,0
	C275.1,96.3,274.5,95.3,274.7,94.2L274.7,94.2z M277.1,96H277c-0.1,0-0.2-0.1-0.3-0.1c-0.3-0.2-0.6-0.5-0.8-0.8
	c-0.2-0.3-0.3-0.7-0.3-1.1c0-0.1,0-0.2,0-0.3l0,0h0.2c0,0.2,0,0.5,0.1,0.7h0.1c0.1,0.2,0.1,0.4,0.2,0.6s0.2,0.3,0.4,0.5l-0.1,0.1
	C276.7,95.7,276.9,95.9,277.1,96L277.1,96z M276.5,93.6L276.5,93.6C276.5,93.7,276.5,93.7,276.5,93.6L276.5,93.6z M276.5,94.1h0.1
	l0,0c0.1,0.2,0.2,0.4,0.3,0.6c0.2,0.4,0.5,0.7,0.9,0.9l0,0c-0.2-0.1-0.4-0.3-0.5-0.4l-0.1,0.1c0.2,0.2,0.3,0.3,0.6,0.5v0.1l0,0
	c-0.1,0-0.2-0.1-0.3-0.1c-0.3-0.2-0.6-0.5-0.8-0.8c-0.2-0.3-0.3-0.7-0.3-1.1c0-0.1,0-0.3,0.1-0.4h0.2
	C276.5,93.6,276.4,93.9,276.5,94.1L276.5,94.1z M277.1,95.7L277.1,95.7L277.1,95.7z M277.3,92.8L277.3,92.8c0.1,0.5,0.3,1,0.5,1.4
	c0.2,0.3,0.4,0.6,0.7,0.9c-0.1,0-0.1,0-0.2-0.1c-0.3-0.2-0.6-0.5-0.8-0.8C277.3,93.8,277.2,93.3,277.3,92.8L277.3,92.8z M278.2,95.1
	c-0.1-0.1-0.2-0.2-0.3-0.3C278,95,278.1,95.1,278.2,95.1L278.2,95.1z M279.1,95.1L279.1,95.1L279.1,95.1h-0.2
	c-0.3-0.3-0.5-0.6-0.8-1s-0.5-0.9-0.6-1.4l0.1-0.1v-0.1c0-0.4,0-0.8,0.2-1.2c-0.2,0.9,0,1.9,0.5,2.7c0.4,0.8,1.1,1.4,1.9,1.8
	C279.8,95.7,279.4,95.5,279.1,95.1L279.1,95.1z M279.6,91.4c0.8,0.7,1.3,1.6,1.5,2.6l-1.4,0.8l0,0l-1.4-2.7L279.6,91.4z M281.3,94.2
	c0.3,0,0.6,0.1,0.9,0.2c0.2,0.1,0.3,0.1,0.4,0.2l-1.3,0.8L280,95L281.3,94.2z M278.9,94.4c-0.1-0.2-0.3-0.3-0.4-0.5
	c-0.2-0.3-0.3-0.7-0.5-1.1L278.9,94.4z M280.6,95.6L280.6,95.6c-0.1,0-0.2-0.1-0.3-0.1L280.6,95.6z M281.3,94c0-0.1-0.1-0.3-0.2-0.6
	c0.2,0.3,0.5,0.5,0.7,0.7C281.7,94,281.5,93.9,281.3,94L281.3,94z M279.8,91.3c0.1-0.1,0.2-0.3,0.3-0.4c0,0.3,0.1,0.6,0.2,0.9
	C280,91.5,279.8,91.3,279.8,91.3L279.8,91.3z M280,90.3c-0.1,0.3-0.2,0.6-0.4,0.9l-1.2,0.7l0.3-1.1L280,90
	C280,90.1,280,90.2,280,90.3L280,90.3z M274.5,95.1L274.5,95.1c0.1,0.2,0.2,0.4,0.3,0.6c0.1,0.2,0.2,0.3,0.3,0.4l0,0
	c-0.1-0.1-0.2-0.3-0.3-0.4S274.6,95.4,274.5,95.1L274.5,95.1z M283.1,91.2c0.7,1.2,0.7,2.6,0,3c-0.1,0-0.3,0-0.5,0
	c-0.8-0.3-1.5-0.9-1.9-1.7c-0.6-0.8-0.7-1.9-0.3-2.8l0.1-0.1C281.1,89.3,282.4,90,283.1,91.2L283.1,91.2z"/>
<path d="M252.9,108.9l1.7-1c0.1-0.1,0.2-0.2,0.1-0.3c-0.1-0.1-0.2-0.2-0.3-0.1l0,0l-1.7,1c-0.1,0.1-0.2,0.2-0.1,0.3
	C252.6,108.9,252.7,109,252.9,108.9L252.9,108.9z"/>
<path d="M179,150.6l-5.1,2.9c-0.1,0.1-0.1,0.2-0.1,0.3c0.1,0.1,0.2,0.1,0.3,0.1l5.1-2.9c0.1-0.1,0.1-0.2,0.1-0.3
	C179.2,150.6,179.1,150.6,179,150.6z"/>
<path d="M263.1,103h0.1l1.7-1c0.1-0.1,0.1-0.2,0.1-0.3c-0.1-0.1-0.2-0.1-0.3-0.1l-1.7,1c-0.1,0.1-0.2,0.2-0.1,0.3
	C262.9,103,263,103,263.1,103L263.1,103z"/>
<path d="M172.1,154.6l-1.7,1c-0.1,0.1-0.2,0.2-0.1,0.3s0.2,0.2,0.3,0.1l0,0l1.7-1c0.1-0.1,0.2-0.2,0.1-0.3S172.3,154.5,172.1,154.6
	L172.1,154.6z"/>
<path d="M256.2,106.9h0.1l5.1-2.9c0.1-0.1,0.2-0.2,0.1-0.3s-0.2-0.2-0.3-0.1l0,0l-5.1,2.9c-0.1,0.1-0.2,0.2-0.1,0.3
	C256,106.9,256.1,107,256.2,106.9L256.2,106.9z"/>
<path d="M245.9,112.8h0.1l5.1-2.9c0.1-0.1,0.1-0.2,0.1-0.3c-0.1-0.1-0.2-0.1-0.3-0.1l-5.1,2.9c-0.1,0.1-0.2,0.2-0.1,0.3
	C245.7,112.8,245.8,112.9,245.9,112.8L245.9,112.8z"/>
<path d="M168.7,156.5l-5.1,2.9c-0.1,0.1-0.2,0.2-0.1,0.3s0.2,0.2,0.3,0.1l0,0l5.1-2.9c0.1-0.1,0.2-0.2,0.1-0.3
	S168.9,156.5,168.7,156.5L168.7,156.5z"/>
<path d="M271.9,97.7c-0.1-0.1-0.2-0.2-0.3-0.1l-5.1,2.9c-0.1,0.1-0.2,0.2-0.1,0.3s0.2,0.2,0.3,0.1l0,0l5.1-2.9
	C271.9,98,271.9,97.8,271.9,97.7z"/>
<path d="M235.5,118.2c-0.1,0.1-0.2,0.2-0.1,0.3c0.1,0.1,0.2,0.2,0.3,0.1l0,0l5.1-2.9c0.1-0.1,0.2-0.2,0.1-0.3
	c-0.1-0.1-0.2-0.2-0.3-0.1l0,0L235.5,118.2z"/>
<path d="M242.3,114.7c0.1,0.1,0.2,0.2,0.3,0.1l1.7-1c0.1-0.1,0.1-0.2,0.1-0.3c-0.1-0.1-0.2-0.1-0.3-0.1l-1.7,1
	C242.3,114.4,242.2,114.6,242.3,114.7z"/>
<path d="M158.4,162.4l-5.1,2.9c-0.1,0.1-0.2,0.2-0.1,0.3s0.2,0.2,0.3,0.1l0,0l5.1-2.9c0.1-0.1,0.1-0.2,0.1-0.3
	C158.6,162.4,158.5,162.4,158.4,162.4z"/>
<path d="M182.4,148.7l-1.7,1c-0.1,0.1-0.2,0.2-0.1,0.3s0.2,0.2,0.3,0.1l0,0l1.7-1c0.1-0.1,0.2-0.2,0.1-0.3S182.6,148.6,182.4,148.7
	L182.4,148.7z"/>
<path d="M213.2,131l-1.7,1c-0.1,0.1-0.2,0.2-0.1,0.3s0.2,0.2,0.3,0.1l0,0l1.7-1c0.1-0.1,0.1-0.2,0.1-0.3S213.3,131,213.2,131z"/>
<path d="M223.5,125.1l-1.7,1c-0.1,0.1-0.1,0.2-0.1,0.3c0.1,0.1,0.2,0.1,0.3,0.1l1.7-1c0.1-0.1,0.1-0.2,0.1-0.3
	C223.8,125.1,223.6,125.1,223.5,125.1z"/>
<path d="M234.1,119.7c0.1-0.1,0.2-0.2,0.1-0.3c-0.1-0.1-0.2-0.2-0.3-0.1l0,0l-1.5,0.8l-19.7-3.9c-0.9-0.2-1.7,1.1-2,2
	c-0.3,1,0.1,2.1,1,2.7l15.3,2.3l-1.7,1c-0.1,0.1-0.2,0.2-0.1,0.3c0.1,0.1,0.2,0.2,0.3,0.1l0,0l2.2-1.3l84.2,12.6h0.1v-0.1l0,0
	l-78.9-15.6L234.1,119.7z"/>
<path d="M131,178.1l-1.7,1c-0.1,0.1-0.2,0.2-0.1,0.3s0.2,0.2,0.3,0.1l0,0l1.7-1c0.1-0.1,0.2-0.2,0.1-0.3S131.2,178,131,178.1
	L131,178.1z"/>
<path d="M220.1,127.1L215,130c-0.1,0.1-0.2,0.2-0.1,0.3s0.2,0.2,0.3,0.1l0,0l5.1-2.9c0.1-0.1,0.1-0.2,0.1-0.3
	C220.4,127,220.2,127,220.1,127.1L220.1,127.1z"/>
<path d="M151.6,166.3l-1.7,1c-0.1,0.1-0.2,0.2-0.1,0.3s0.2,0.2,0.3,0.1l0,0l1.7-1c0.1-0.1,0.1-0.2,0.1-0.3
	C151.8,166.3,151.7,166.3,151.6,166.3z"/>
<path d="M161.8,160.5l-1.7,1c-0.1,0.1-0.1,0.2-0.1,0.3c0.1,0.1,0.2,0.1,0.3,0.1l1.7-1c0.1-0.1,0.1-0.2,0.1-0.3
	C162.1,160.4,161.9,160.4,161.8,160.5z"/>
<path d="M137.8,174.2l-5.1,2.9c-0.1,0.1-0.1,0.2-0.1,0.3c0.1,0.1,0.2,0.1,0.3,0.1l5.1-2.9c0.1-0.1,0.2-0.2,0.1-0.3
	S138,174.1,137.8,174.2C137.9,174.2,137.9,174.2,137.8,174.2z"/>
<path d="M148.1,168.3l-5.1,2.9c-0.1,0.1-0.2,0.2-0.1,0.3s0.2,0.2,0.3,0.1l0,0l5.1-2.9c0.1-0.1,0.1-0.2,0.1-0.3
	C148.4,168.3,148.2,168.3,148.1,168.3L148.1,168.3z"/>
<path d="M141.3,172.2l-1.7,1c-0.1,0.1-0.2,0.2-0.1,0.3s0.2,0.2,0.3,0.1l0,0l1.7-1c0.1-0.1,0.2-0.2,0.1-0.3S141.4,172.2,141.3,172.2
	L141.3,172.2z"/>
<path d="M209.8,133l-5.1,2.9c-0.1,0.1-0.1,0.2-0.1,0.3c0.1,0.1,0.2,0.1,0.3,0.1l5.1-2.9c0.1-0.1,0.1-0.2,0.1-0.3
	C210,133,209.9,133,209.8,133z"/>
<path d="M273.1,97c0.1,0.1,0.2,0.2,0.3,0.1l0.9-0.5c0.1-0.1,0.1-0.2,0.1-0.3c-0.1-0.1-0.2-0.1-0.3-0.1l-0.9,0.5
	C273.1,96.7,273.1,96.9,273.1,97z"/>
<path d="M210.2,85.1h0.1l5.8-3.3c0.1-0.1,0.2-0.2,0.1-0.3c-0.1-0.1-0.2-0.2-0.3-0.1l0,0l-5.8,3.3c-0.1,0.1-0.2,0.2-0.1,0.3
	C209.9,85.1,210,85.1,210.2,85.1L210.2,85.1z"/>
<path d="M219.7,79.1l-1.9,1.1c-0.1,0.1-0.1,0.2-0.1,0.3c0.1,0.1,0.2,0.1,0.3,0.1l1.9-1.1c0.1-0.1,0.2-0.2,0.1-0.3
	C220,79.1,219.9,79,219.7,79.1L219.7,79.1z"/>
<path d="M250.6,61.3l-5.8,3.3c-0.1,0.1-0.1,0.2-0.1,0.3c0.1,0.1,0.2,0.1,0.3,0.1l5.8-3.3c0.1-0.1,0.2-0.2,0.1-0.3
	C250.9,61.3,250.8,61.2,250.6,61.3L250.6,61.3z"/>
<path d="M242.9,65.7l-1.9,1.1c-0.1,0.1-0.1,0.2-0.1,0.3c0.1,0.1,0.2,0.1,0.3,0.1l1.9-1.1c0.1-0.1,0.1-0.2,0.1-0.3
	C243.1,65.7,243,65.7,242.9,65.7z"/>
<path d="M239,68l-5.8,3.3c-0.1,0.1-0.1,0.2-0.1,0.3c0.1,0.1,0.2,0.1,0.3,0.1l5.8-3.3c0.1-0.1,0.2-0.2,0.1-0.3
	C239.3,68,239.2,67.9,239,68L239,68z"/>
<path d="M221.5,78.3c0.1,0.1,0.2,0.2,0.3,0.1l5.8-3.3c0.1-0.1,0.2-0.2,0.1-0.3c-0.1-0.1-0.2-0.2-0.3-0.1l0,0l-5.8,3.3
	C221.5,78.1,221.5,78.2,221.5,78.3z"/>
<path d="M229.6,74l1.9-1.1c0.1-0.1,0.1-0.2,0.1-0.3c-0.1-0.1-0.2-0.1-0.3-0.1l-1.9,1.1c-0.1,0.1-0.2,0.2-0.1,0.3
	c0,0.1,0.1,0.1,0.2,0.1H229.6z"/>
<path d="M252.4,60.5c0,0.1,0.1,0.1,0.2,0.1h0.1l0.7-0.4c0.2,0.3,0.5,0.6,0.8,0.9c0.2,0.1,0.4,0.2,0.6,0.2c0.1,0,0.3,0,0.4-0.1
	l0.1-0.1l0.2-0.2l0.4-0.1l0.1-0.2l0.4-0.1l0.1-0.2l0.4-0.1L257,60l0.4-0.1l0.2-0.2l0.2-0.1c0.4,0.4,0.9,0.6,1.5,0.6
	c0.3,0,0.5-0.1,0.8-0.2l0.3-0.2c0,0,0,0,0.1-0.1l1.9-1.1l0,0c0.5-0.3,0.8-0.9,0.8-1.5c0-0.8-0.2-1.5-0.6-2.1
	c-0.8-1.4-2.3-2.3-3.2-1.8l0,0l-1.9,1.1h-0.1c0,0-0.2,0.1-0.4,0.2c-0.6,0.4-0.9,1.1-0.8,1.8l-0.2,0.2h-0.3l-0.3,0.3h-0.3l-0.3,0.3
	h-0.2l-0.3,0.2H254l-0.2,0.2h-0.1l-0.2,0.1c-0.3,0.2-0.5,0.6-0.4,1c0,0.3,0.1,0.6,0.2,0.9l-0.8,0.4c-0.1,0-0.2,0.2-0.2,0.3
	C252.4,60.4,252.4,60.5,252.4,60.5z M254.3,58h0.1c0,0.3,0,0.5,0.1,0.8h0.1v-0.2c0.1,0.2,0.2,0.4,0.3,0.6c0.2,0.3,0.4,0.6,0.7,0.8
	c-0.2-0.1-0.3-0.2-0.4-0.4l-0.1,0.1c0.2,0.2,0.4,0.4,0.6,0.5v0.1h-0.1c-0.1,0-0.2-0.1-0.3-0.1c-0.3-0.2-0.6-0.5-0.8-0.8
	C254.3,59,254.2,58.5,254.3,58L254.3,58z M254.8,57.7h0.2c0,0.2,0,0.5,0.1,0.7h0.1c0.1,0.2,0.1,0.4,0.2,0.6c0.1,0.2,0.2,0.3,0.4,0.5
	l-0.1,0.1c0.2,0.2,0.4,0.4,0.6,0.5l-0.1,0.1h-0.1c-0.1,0-0.2-0.1-0.3-0.1c-0.3-0.2-0.6-0.5-0.8-0.8
	C254.8,58.8,254.7,58.3,254.8,57.7L254.8,57.7z M255.9,57.1h0.2c0,0.3,0,0.5,0.1,0.8h0.1c0.1,0.4,0.3,0.8,0.6,1.1l0,0l-0.1,0.1
	c0.2,0.2,0.4,0.3,0.6,0.5l-0.1,0.1h-0.1c-0.1,0-0.2-0.1-0.2-0.1c-0.3-0.2-0.6-0.5-0.7-0.8C255.9,58.2,255.8,57.7,255.9,57.1
	L255.9,57.1z M256.4,56.9L256.4,56.9c0.1,0.5,0.3,1,0.5,1.4c0.2,0.3,0.4,0.6,0.7,0.9c-0.1,0-0.1,0-0.2-0.1c-0.3-0.2-0.6-0.5-0.8-0.8
	C256.4,57.9,256.3,57.4,256.4,56.9L256.4,56.9z M257.3,59.2c-0.1-0.1-0.2-0.2-0.3-0.2C257.1,59.1,257.2,59.1,257.3,59.2L257.3,59.2z
	 M258.2,59.2L258.2,59.2L258.2,59.2H258c-0.3-0.3-0.5-0.6-0.8-1s-0.4-0.9-0.5-1.4l0.1-0.1v-0.1c0-0.4,0-0.8,0.2-1.1
	c0,0.2-0.1,0.3-0.1,0.5c0,0.7,0.3,1.5,0.6,2.1c0.4,0.8,1.1,1.4,1.9,1.8C258.9,59.8,258.5,59.5,258.2,59.2L258.2,59.2z M258.7,55.5
	c0.7,0.7,1.3,1.5,1.5,2.5l-1.4,0.8l0,0l-1.4-2.7L258.7,55.5z M260.3,58.2c0.3,0,0.6,0.1,0.9,0.2c0.2,0.1,0.3,0.1,0.4,0.2l-1.3,0.8
	L259,59L260.3,58.2z M258,58.5c-0.1-0.2-0.3-0.3-0.4-0.5c-0.2-0.3-0.3-0.7-0.5-1.1L258,58.5z M259.7,59.7L259.7,59.7
	c-0.1,0-0.2-0.1-0.3-0.1L259.7,59.7z M260.4,58c0-0.1-0.1-0.3-0.2-0.6c0.2,0.3,0.5,0.5,0.7,0.7C260.7,58.1,260.6,58,260.4,58
	L260.4,58z M258.8,55.3c0.1-0.1,0.2-0.3,0.3-0.4c0,0.3,0.1,0.6,0.2,1C259.1,55.6,258.9,55.4,258.8,55.3L258.8,55.3z M259.1,54.3
	c-0.1,0.3-0.2,0.6-0.4,0.9l-1.2,0.7l0.3-1.1l1.4-0.8C259.1,54.1,259.1,54.2,259.1,54.3L259.1,54.3z M255.6,57.7L255.6,57.7
	L255.6,57.7L255.6,57.7z M255.6,58.2h0.1l0,0c0.1,0.2,0.2,0.4,0.3,0.6c0.2,0.4,0.5,0.7,0.8,0.9h0.1l0,0c-0.2-0.1-0.4-0.3-0.5-0.4
	l-0.1,0.1c0.2,0.2,0.3,0.3,0.6,0.5V60h-0.1c-0.5-0.2-0.8-0.5-1.1-1c-0.3-0.4-0.4-0.9-0.2-1.4h0.2C255.6,57.7,255.6,57.9,255.6,58.2
	L255.6,58.2z M253.9,58.3L253.9,58.3c0.1,0.2,0.1,0.5,0.2,0.7h0.1c0.1,0.2,0.2,0.4,0.3,0.6c0.1,0.2,0.2,0.3,0.3,0.4l-0.1,0.1
	c0.2,0.2,0.4,0.4,0.7,0.5l-0.1,0.1l0,0c-0.1,0-0.2-0.1-0.3-0.1c-0.3-0.2-0.6-0.5-0.8-0.8C253.9,59.3,253.8,58.8,253.9,58.3
	L253.9,58.3z M253.7,59.3L253.7,59.3c0.1,0.4,0.3,0.8,0.6,1.1l0,0c-0.1-0.1-0.2-0.3-0.3-0.5C253.8,59.7,253.7,59.4,253.7,59.3
	L253.7,59.3z M262.2,55.3c0.3,0.6,0.5,1.2,0.5,1.9c0,0.4-0.2,0.9-0.5,1.1c-0.1,0-0.3,0-0.4,0c-0.8-0.3-1.5-0.9-1.9-1.7
	c-0.6-0.8-0.7-1.9-0.3-2.8l0.1-0.1l0,0C260.2,53.4,261.5,54,262.2,55.3L262.2,55.3z"/>
<path d="M118.3,71.1L118.3,71.1l5.5-3.1c0.1-0.1,0.1-0.2,0.1-0.3c-0.1-0.1-0.2-0.1-0.3-0.1l-5.4,3.1c-0.1,0.1-0.2,0.2-0.1,0.3
	C118.1,71,118.2,71.1,118.3,71.1L118.3,71.1z"/>
<path d="M125.5,66.9L125.5,66.9l1.9-1c0.1-0.1,0.1-0.2,0.1-0.3c-0.1-0.1-0.2-0.1-0.3-0.1l-1.8,1c-0.1,0.1-0.2,0.2-0.1,0.3
	C125.3,66.9,125.4,67,125.5,66.9L125.5,66.9z"/>
<path d="M107.4,77.2L107.4,77.2l5.5-3.1c0.1-0.1,0.1-0.2,0.1-0.3c-0.1-0.1-0.2-0.1-0.3-0.1l-5.4,3.1c-0.1,0.1-0.2,0.2-0.1,0.3
	C107.3,77.2,107.4,77.2,107.4,77.2L107.4,77.2z"/>
<path d="M92.8,85.3c0.1,0.1,0.2,0.2,0.3,0.1l1.8-1c0.1-0.1,0.1-0.2,0.1-0.3C94.9,84,94.8,84,94.7,84l-1.8,1
	C92.8,85.1,92.7,85.2,92.8,85.3z"/>
<path d="M114.7,73.1L114.7,73.1l1.9-1c0.1-0.1,0.1-0.2,0.1-0.3c-0.1-0.1-0.2-0.1-0.3-0.1l-1.8,1c-0.1,0.1-0.2,0.2-0.1,0.3
	C114.5,73.1,114.6,73.2,114.7,73.1L114.7,73.1z"/>
<path d="M96.6,83.4L96.6,83.4l5.5-3.1c0.1-0.1,0.1-0.2,0.1-0.3c-0.1-0.1-0.2-0.1-0.3-0.1L96.5,83c-0.1,0.1-0.2,0.2-0.1,0.3
	C96.4,83.4,96.5,83.5,96.6,83.4L96.6,83.4z"/>
<path d="M103.8,79.3L103.8,79.3l1.9-1c0.1-0.1,0.1-0.2,0.1-0.3c-0.1-0.1-0.2-0.1-0.3-0.1l-1.8,1c-0.1,0.1-0.2,0.2-0.1,0.3
	C103.6,79.3,103.7,79.3,103.8,79.3L103.8,79.3z"/>
<path d="M158,48.4h0.1l1.8-1c0.1-0.1,0.2-0.2,0.1-0.3c-0.1-0.1-0.2-0.2-0.3-0.1l0,0l-1.8,1c-0.1,0.1-0.2,0.2-0.1,0.3
	C157.8,48.4,157.9,48.5,158,48.4L158,48.4z"/>
<path d="M161.6,46.3h0.1l5.4-3.1c0.1-0.1,0.1-0.2,0.1-0.3c-0.1-0.1-0.2-0.1-0.3-0.1l-5.4,3.1c-0.1,0.1-0.2,0.2-0.1,0.3
	C161.4,46.3,161.5,46.4,161.6,46.3L161.6,46.3z"/>
<path d="M168.8,42.2h0.1l1.8-1c0.1-0.1,0.2-0.2,0.1-0.3c-0.1-0.1-0.2-0.2-0.3-0.1l0,0l-1.8,1c-0.1,0.1-0.2,0.2-0.1,0.3
	C168.6,42.2,168.7,42.3,168.8,42.2L168.8,42.2z"/>
<path d="M172.4,40.2h0.1l5.4-3.1c0.1-0.1,0.1-0.2,0.1-0.3c-0.1-0.1-0.2-0.1-0.3-0.1l-5.4,3.1c-0.1,0.1-0.2,0.2-0.1,0.3
	C172.3,40.1,172.4,40.2,172.4,40.2L172.4,40.2z"/>
<path d="M83.8,90.1l-1.8,1c-0.1,0.1-0.2,0.2-0.1,0.3c0,0.1,0.1,0.1,0.2,0.1h0.1l1.8-1c0.1-0.1,0.2-0.2,0.1-0.3S84,90.1,83.8,90.1
	C83.9,90.2,83.8,90.2,83.8,90.1L83.8,90.1z"/>
<path d="M80.2,92.2l-5.4,3.1c-0.1,0.1-0.2,0.2-0.1,0.3c0,0.1,0.1,0.1,0.2,0.1H75l5.4-3.1c0.1-0.1,0.1-0.2,0.1-0.3
	C80.5,92.2,80.3,92.2,80.2,92.2L80.2,92.2z"/>
<path d="M73,96.3l-1.8,1c-0.1,0.1-0.2,0.2-0.1,0.3c0,0.1,0.1,0.1,0.2,0.1h0.1l1.8-1c0.1-0.1,0.1-0.2,0.1-0.3
	C73.2,96.3,73.1,96.3,73,96.3L73,96.3z"/>
<path d="M179.7,36.1h0.1l1.8-1c0.1-0.1,0.1-0.2,0.1-0.3c-0.1-0.1-0.2-0.1-0.3-0.1l-1.8,1c-0.1,0.1-0.2,0.2-0.1,0.3
	C179.5,36,179.6,36.1,179.7,36.1L179.7,36.1z"/>
<path d="M183.3,34h0.1l5.4-3.1c0.1-0.1,0.1-0.2,0.1-0.3c-0.1-0.1-0.2-0.1-0.3-0.1l-5.4,3.1c-0.1,0.1-0.2,0.2-0.1,0.3
	C183.1,34,183.2,34,183.3,34L183.3,34z"/>
<path d="M91.1,86l-5.4,3.1c-0.1,0.1-0.2,0.2-0.1,0.3c0,0.1,0.1,0.1,0.2,0.1h0.1l5.4-3.1c0.1-0.1,0.2-0.2,0.1-0.3S91.2,86,91.1,86
	L91.1,86L91.1,86z"/>
<path d="M190.5,29.9h0.1l0.7-0.4c0.2,0.3,0.5,0.6,0.8,0.9c0.2,0.1,0.4,0.2,0.6,0.2c0.1,0,0.3,0,0.4-0.1l0.1-0.1l0.2-0.2l0.4-0.1
	l0.1-0.2l0.4-0.1l0.1-0.2l0.4-0.1l0.1-0.2l0.4-0.1l0.2-0.2l0.2-0.1c0.4,0.4,0.9,0.6,1.5,0.6c0.3,0,0.5-0.1,0.8-0.2l0.3-0.2
	c0,0,0,0,0.1-0.1l1.9-1.1l0,0c1-0.5,1-2.2,0.2-3.7s-2.3-2.3-3.2-1.8l0,0l-1.9,1.1h-0.1c0,0-0.2,0.1-0.4,0.2
	c-0.6,0.4-0.9,1.1-0.8,1.8l-0.2,0.1h-0.3l-0.3,0.3H193l-0.3,0.3h-0.2l-0.3,0.2h-0.3l-0.2,0.2h-0.1l-0.2,0.1c-0.3,0.2-0.5,0.6-0.4,1
	c0,0.3,0.1,0.6,0.2,0.9l-0.8,0.4c-0.1,0.1-0.2,0.2-0.1,0.3c0,0.1,0.1,0.1,0.2,0.1L190.5,29.9z M192.1,27.2h0.1c0,0.3,0,0.5,0.1,0.8
	h0.1c0-0.2-0.1-0.3-0.1-0.5c0,0.4,0.2,0.7,0.3,1.1c0.2,0.3,0.4,0.6,0.7,0.8c-0.2-0.1-0.3-0.2-0.4-0.4h-0.1c0.2,0.2,0.4,0.4,0.6,0.5
	v0.1h-0.1c-0.1,0-0.2-0.1-0.3-0.1c-0.3-0.2-0.6-0.5-0.8-0.8C192.2,28.2,192.1,27.7,192.1,27.2L192.1,27.2z M192.7,27h0.2
	c0,0.2,0,0.5,0.1,0.7h0.1c0.1,0.2,0.1,0.4,0.2,0.6c0.1,0.2,0.2,0.3,0.4,0.5l-0.1,0.1c0.2,0.2,0.4,0.4,0.6,0.5l-0.1,0.1H194
	c-0.1,0-0.2-0.1-0.3-0.1c-0.3-0.2-0.6-0.5-0.8-0.8s-0.3-0.7-0.3-1.1C192.6,27.2,192.6,27.1,192.7,27L192.7,27z M193.8,26.4h0.2
	c0,0.3,0,0.5,0.1,0.8h0.1c0.1,0.2,0.1,0.4,0.2,0.6c0.1,0.2,0.2,0.4,0.4,0.5l0,0l-0.1,0.1c0.2,0.2,0.4,0.3,0.6,0.5l-0.1,0.1H195
	C194.1,28.4,193.6,27.4,193.8,26.4L193.8,26.4z M194.3,26.2L194.3,26.2c0.2,0.9,0.6,1.7,1.2,2.3c-0.1,0-0.1,0-0.2-0.1
	c-0.3-0.2-0.6-0.5-0.8-0.9S194.2,26.6,194.3,26.2L194.3,26.2z M195.1,28.5c-0.1-0.1-0.2-0.2-0.3-0.2C194.9,28.3,195,28.4,195.1,28.5
	L195.1,28.5z M196,28.5L196,28.5L196,28.5h-0.2c-0.7-0.7-1.1-1.5-1.3-2.4l0.1-0.1v-0.1c0-0.4,0-0.8,0.2-1.1c0,0.2-0.1,0.3-0.1,0.5
	c0,0.7,0.3,1.5,0.6,2.1c0.4,0.7,1.1,1.3,1.9,1.7C196.8,28.9,196.3,28.7,196,28.5L196,28.5z M196.6,24.7c0.4,0.4,0.7,0.8,1,1.2
	c0.2,0.5,0.4,0.9,0.4,1.4l-1.4,0.8l0,0l-1.4-2.6L196.6,24.7z M198.2,27.5c0.3,0,0.6,0.1,0.9,0.2c0.2,0.1,0.3,0.1,0.4,0.2l-1.3,0.8
	l-1.3-0.4L198.2,27.5z M195.9,27.7c-0.1-0.2-0.3-0.3-0.4-0.5c-0.2-0.3-0.4-0.7-0.5-1.1L195.9,27.7z M197.5,28.9L197.5,28.9
	c-0.1,0-0.2-0.1-0.3-0.1L197.5,28.9z M198.2,27.3c0-0.1-0.1-0.3-0.2-0.6c0.2,0.3,0.5,0.5,0.8,0.7C198.6,27.3,198.4,27.3,198.2,27.3
	L198.2,27.3z M196.7,24.6c0.1-0.1,0.2-0.3,0.3-0.4c0,0.3,0.1,0.6,0.2,1C197,24.8,196.8,24.6,196.7,24.6L196.7,24.6z M196.9,23.6
	c-0.1,0.3-0.2,0.6-0.4,0.9l-1.2,0.7l0.3-1.1l1.4-0.8C197,23.4,196.9,23.5,196.9,23.6L196.9,23.6z M193.5,27v0.1V27z M193.5,27.5h0.1
	l0,0c0.1,0.2,0.2,0.4,0.3,0.6c0.2,0.4,0.5,0.7,0.9,0.9l0,0c-0.2-0.1-0.4-0.3-0.5-0.4l-0.1,0.1c0.2,0.2,0.3,0.3,0.6,0.5v0.1l0,0
	c-0.1,0-0.2-0.1-0.3-0.1c-0.3-0.2-0.6-0.5-0.8-0.8s-0.3-0.7-0.3-1.1c0-0.1,0-0.3,0.1-0.4h0.2C193.5,27,193.4,27.2,193.5,27.5
	L193.5,27.5z M194,29L194,29L194,29z M191.7,27.5L191.7,27.5c0.1,0.2,0.1,0.5,0.2,0.7h0.1c0.1,0.2,0.2,0.4,0.3,0.6s0.2,0.3,0.3,0.4
	l-0.1,0.1c0.2,0.2,0.4,0.4,0.7,0.5l-0.1,0.1l0,0c-0.1,0-0.2-0.1-0.3-0.1c-0.3-0.2-0.6-0.5-0.8-0.9C191.7,28.6,191.6,28,191.7,27.5
	L191.7,27.5z M191.5,28.5L191.5,28.5c0.1,0.2,0.2,0.4,0.3,0.6s0.2,0.3,0.3,0.4l0,0c-0.1-0.1-0.2-0.3-0.3-0.5
	C191.6,28.9,191.5,28.7,191.5,28.5L191.5,28.5z M200,24.5c0.7,1.2,0.7,2.6,0,3c-0.1,0-0.3,0-0.4,0c-0.8-0.3-1.5-0.9-1.9-1.7
	c-0.6-0.8-0.7-1.9-0.3-2.9l0.1-0.1l0,0C198.1,22.6,199.3,23.3,200,24.5z"/>
<path d="M128.3,137.6l-4.4,2.5c-0.5-1.1-1.3-2-2.3-2.6l-21.4-14.1c0-0.1,0-0.3-0.2-0.3c-0.1,0-0.1,0-0.2,0l0,0L66,100.9l3.7-2.1
	c0.1-0.1,0.2-0.2,0.1-0.3s-0.2-0.2-0.3-0.1l0,0l-3.9,2.2l-5.8-3.8c-0.6-0.4-1.2-0.6-1.9-0.6c-0.2,0-0.5,0-0.7,0.1
	c-0.4,0.1-2.5,1.3-3.5,1.8c-0.3,0.1-1.1,0.7-1.1,2.5l-1.2,46c0,2.5,1.3,4.8,3.3,6.3c2.9,1.9,61.4,40.3,61.9,40.7
	c0.6,0.4,1.2,0.6,1.9,0.6c0.5,0,0.9-0.1,1.3-0.4l2.8-1.6c0.3-0.2,0.6-0.4,0.8-0.8c0.2-0.5,0.4-1,0.4-1.6l0.2-6.9l4-2.3
	c0.1-0.1,0.1-0.2,0.1-0.3c-0.1-0.1-0.2-0.1-0.3-0.1l-3.7,2.1l1-38.5c0-1.1-0.3-2.2-0.7-3.2l4.4-2.5c0.1-0.1,0.2-0.2,0.1-0.3
	S128.5,137.5,128.3,137.6L128.3,137.6z M57.5,96.9h0.3c0.5,0,1,0.2,1.4,0.6l5.5,3.6l-0.7,0.4c-0.1,0.1-0.2,0.2-0.1,0.3
	c0,0.1,0.1,0.1,0.2,0.1h0.1l0.9-0.5L99,123.6l-4.4,2.4c-0.1,0.1-0.2,0.2-0.1,0.3s0.2,0.2,0.3,0.1l0,0l4.6-2.6l21.7,14.2
	c0.9,0.6,1.6,1.4,2.1,2.4l-0.2,0.1c-0.1,0.1-0.2,0.2-0.1,0.3c0,0.1,0.1,0.1,0.2,0.1h0.1l0.2-0.1c0.4,0.9,0.6,1.8,0.6,2.8l-1,39
	l-0.6,0.4c-0.1,0.1-0.2,0.2-0.1,0.3s0.2,0.2,0.3,0.1l0,0l0.3-0.2l-0.2,6.4c0,0.4-0.1,0.9-0.3,1.2c-0.1,0.2-0.3,0.4-0.5,0.4l0,0
	c-0.7,0.2-1.5,0.1-2.1-0.4c-0.6-0.4-59-38.8-61.9-40.7s-2.9-5.6-2.9-5.6l1.2-46c0-0.4,0.1-0.8,0.3-1.2C56.8,97.2,57.1,97,57.5,96.9z
	 M119.3,193.1c-0.3,0.2-0.6,0.3-1,0.3c-0.6,0-1.1-0.2-1.5-0.5c0,0-59-38.7-61.9-40.7s-3-5.7-3-5.7l1.2-46c0-1.7,0.8-1.9,0.8-1.9
	s1.9-1,2.9-1.5c-0.1,0.1-0.2,0.2-0.3,0.4c-0.2,0.4-0.3,0.8-0.3,1.2l-1.2,46c0,0,0,3.9,3,5.8s61.3,40.3,61.9,40.7
	c0.5,0.3,1,0.5,1.6,0.5h0.3L119.3,193.1z"/>
<path d="M149.6,125.5l-5.3,3c-0.1,0.1-0.2,0.2-0.1,0.3c0,0.1,0.1,0.1,0.2,0.1h0.1l5.3-3c0.1-0.1,0.2-0.2,0.1-0.3
	S149.7,125.5,149.6,125.5L149.6,125.5z"/>
<path d="M131.8,135.5l-1.8,1c-0.1,0.1-0.2,0.2-0.1,0.3c0,0.1,0.1,0.1,0.2,0.1h0.1l1.8-1c0.1-0.1,0.2-0.2,0.1-0.3
	S132,135.5,131.8,135.5L131.8,135.5z"/>
<path d="M142.5,129.5l-1.8,1c-0.1,0.1-0.2,0.2-0.1,0.3c0,0.1,0.1,0.1,0.2,0.1h0.1l1.8-1c0.1-0.1,0.2-0.2,0.1-0.3
	S142.6,129.5,142.5,129.5L142.5,129.5z"/>
<path d="M138.9,131.5l-5.3,3c-0.1,0.1-0.2,0.2-0.1,0.3c0,0.1,0.1,0.1,0.2,0.1h0.1l5.3-3c0.1-0.1,0.2-0.2,0.1-0.3
	S139,131.5,138.9,131.5L138.9,131.5z"/>
<path d="M248.1,64.8c6.2,11.5,12.8,23.7,18.4,34.1l0.9-0.5C261.7,88,255.1,75.8,249,64.3L248.1,64.8z"/>
<path d="M228.4,28.4c3,5.5,10.1,18.6,18.1,33.5l0.9-0.5c-8-14.8-15.1-28-18.1-33.5C220.4,12,205.4,0,205.4,0h-1.6
	C205.8,1.7,220.4,14,228.4,28.4z"/>
<path d="M367.5,124.1l-19.6-11.5h-0.1l-9.7-0.3H338L306.9,130c-0.1,0-0.1,0-0.2,0s-0.2,0.2-0.2,0.3l0.8,3.1l0.5,0.1l-0.8-3.3
	l0.5-0.3l6.6,4l-0.5,0.2c-0.1,0.1-0.2,0.2-0.2,0.4s-0.1,4.6-0.1,4.9c0,0.1-0.2,0.8,0.7,1.3l7.5,4.6c0.1,0.1,0.2,0.1,0.4,0.1h0.1
	l0.2-0.2l0,0l0.2-0.1l0,0c0.1-0.1,0.2-0.2,0.2-0.3v-0.4c0,0,0,0,0-0.1l0.4-0.2l0,0l0,0l0.1-0.1h0.1c0.1,0,0.1-0.1,0.1-0.2l0,0v-0.1
	v-0.1l0,0h0.1c0,0,0.1,0,0.1-0.1v-0.1c0,0,0,0,0-0.1l0,0l0.7-3l0,0l6.1,3.6v1.8l-5.4,3.1l-15.9-9.7l-0.5-1.9l-0.5-0.1l0.5,2.2
	c0,0.1,0.1,0.1,0.1,0.1l16.1,9.9h0.1h0.1l42.6-24.5c0.1-0.1,0.1-0.2,0.1-0.3c-0.1-0.1-0.2-0.1-0.3-0.1L367.5,124.1z M322,145
	l-0.1-0.1l0,0l-7.4-4.6l0,0c-0.2,0-0.3-0.2-0.4-0.3s-0.1-0.2-0.1-0.3v-0.1l0,0l0.1-5.1v-0.1c0-0.1,0-0.1,0-0.2h0.1l0,0l0.1-0.1l0,0
	v0.1v0.1c0,0,0,0.3,0,0.4s0,0.1,0,0.1l0,0l0,0l0,0l0,0l0,0l0,0h0.1l0.4-0.2l0,0l1-0.5l-1.1,4.4l-0.5,0.3l0,0l0,0
	c0,0.1-0.1,0.2-0.1,0.2v0.4l0,0c0,0.1,0,0.3,0.1,0.4c0.1,0.1,0.2,0.2,0.3,0.3l0.8,0.5c0.1,0,0.1,0,0.2,0.1h0.1l0.2-0.1l5.6,3.5l0,0
	l-0.1,0.1h-0.1l0,0l0,0v0.1c0,0,0,0.1,0.1,0.1l0.8,0.5h0.1l-0.1,0.1C322.1,144.9,322.1,145,322,145z M315.1,134.1L315.1,134.1
	c0,0.1,0,0.2,0,0.2l-0.1,0.1l0,0v-0.1v-0.1v-0.1l0,0l0,0l0,0l0,0c0,0,0,0,0,0.1s0,0.2,0,0.2l0,0v-0.1l0,0l0,0l0,0v-0.1
	c0,0,0,0,0-0.1V134C315,134.2,315.1,134.2,315.1,134.1C315.1,134.3,315.2,134.3,315.1,134.1C315.2,134.2,315.2,134.2,315.1,134.1
	L315.1,134.1L315.1,134.1L315.1,134.1L315.1,134.1L315.1,134.1H315l0,0c0,0,0,0-0.1,0.1c0,0,0,0,0,0.1l0,0v-0.1c0,0,0,0,0-0.1h0.1
	H315.1L315.1,134.1L315.1,134.1L315.1,134.1z M320.4,135.1L320.4,135.1L320.4,135.1v0.1c0-0.1,0-0.1-0.1-0.2l-2-1.2h-0.1l0,0l0,0
	L320.4,135.1L320.4,135.1z M318.2,133.9l2,1.2l0.1,0.1v1.1l-0.1-0.1l-1.9-1.2l-0.1-0.1C318.2,134.9,318.2,134,318.2,133.9
	L318.2,133.9z M317.8,133.5L317.8,133.5L317.8,133.5c0,0.2,0,0.3,0.2,0.4l0,0h0.1l0,0l0,0c0,0.1,0,1,0,1.1v0.1l0.1,0.1l1.9,1.2
	l0.1,0.1h0.1c0,0,0.1-0.1,0-0.1v-1l0,0c0,0.1,0.1,0.1,0.1,0.1h0.1l0,0l0,0l0,0l0,0l0,0l0,0l2.3,1.5l0,0l0,0c0,0.1,0,0.2,0,0.2
	c0,0.1,0.1,0.1,0.2,0.1l0,0l0,0v-0.1l0,0l0,0c0,0,0,0,0-0.1l0.4,0.2v0.6l-0.6,0.7l-5.4-3.4l-0.6-1.5v-0.5l0.5,0.3L317.8,133.5z
	 M324.3,139.5l-0.4-0.3l0,0l0,0l0.1-0.6v0.1l0,0c0,0.2-0.1,0.4-0.1,0.4v0.1l0,0L324.3,139.5L324.3,139.5z M324.1,139.1L324.1,139.1z
	 M324.4,139.3L324.4,139.3z M323.9,139.1v0.1l0,0l0.4,0.4l-0.8,3.3l-0.4-0.1H323v0.1l-0.1,0.5c-0.1,0-0.1,0-0.2,0l-0.8,0.4l0,0
	l-1-0.6l0,0l0,0l0.1-0.3l0.7,0.4l0.1,0.1h0.1c0.1,0,0.2,0,0.3-0.1l0,0l0.5-0.3l0,0l0,0l0,0c0.1-0.1,0.1-0.1,0.1-0.2l0.3-1.2
	c0,0,0,0,0-0.1v-0.1l0.4-1.5l0,0c0,0,0.1,0,0.1-0.1l0.2-0.9v0.1l0.1-0.7v0.1l0.1,0.1L323.9,139.1z M323,143.4l0.1-0.5l0,0l0,0
	L323,143.4L323,143.4z M323.2,143L323.2,143L323.2,143L323.2,143L323.2,143L323.2,143L323.2,143z M315.7,140.6L315.7,140.6
	L315.7,140.6l-0.6-1.1c-0.1-0.1-0.2-0.2-0.3-0.3l-0.2-0.1l0,0V139l0.4-0.2v0.1c0,0,0,0.1,0.1,0.1l0.2,0.1l0,0
	c0.1,0.1,0.2,0.2,0.2,0.3l0.4,1.2c0,0,0,0,0,0.1L315.7,140.6z M315.2,140.1L315.2,140.1L315.2,140.1L315.2,140.1L315.2,140.1
	L315.2,140.1L315.2,140.1L315.2,140.1L315.2,140.1L315.2,140.1L315.2,140.1z M315.9,140.4l-0.4-1.2c0-0.2-0.1-0.3-0.3-0.4l-0.2-0.1
	v-0.1l0.2-0.1c0,0.1,0.1,0.1,0.1,0.2l0.2,0.1h0.1l0,0l0,0l0,0l0,0c0.1,0.1,0.1,0.1,0.1,0.2l0,0c0,0,0.4,1.1,0.4,1.2l0,0l0,0
	l-0.1,0.1C316,140.3,315.9,140.4,315.9,140.4L315.9,140.4z M316,134.1L316,134.1L316,134.1L316,134.1l0.1,0.2l0,0l0,0l-0.1,0.1l0,0
	l0,0l-0.8,3.4l0,0l0,0l0,0l-0.1,0.1l0,0l0,0l0,0l0,0c0,0,0,0.2,0,0.3l-0.1,0.1L316,134.1z M323,141.6l-0.3,1.1l0,0
	c0,0.1-0.1,0.1-0.1,0.2c-0.1,0-0.1,0-0.2,0l-1.8-1.1l0.1-0.8l1.4,0.9c0.1,0,0.1,0.1,0.2,0.1h0.1c0.1,0,0.2-0.1,0.2-0.2l0.1-0.6
	L323,141.6L323,141.6L323,141.6z M316.3,134.4l0.3,0.1l0,0l0,0L316.3,134.4L316.3,134.4z M315.3,138l0.2,0.2l0,0h-0.1l0,0L315.3,138
	L315.3,138z M315.7,138.3L315.7,138.3L315.7,138.3z M315.3,138.2L315.3,138.2L315.3,138.2L315.3,138.2z M315.5,138.6L315.5,138.6
	L315.5,138.6z M320.2,142.8v-0.4l0,0V142.8L320.2,142.8z M317.2,141v-0.4l0,0V141L317.2,141z M316.9,136l-0.1,1.7h-0.2L316.9,136
	L316.9,136z M319.8,142l-1.3-0.8l0.5-0.2l1.3,0.8L319.8,142z M320.5,140.9l-0.1,0.8l-1.2-0.8l0.2-0.4l0.2-0.3L320.5,140.9z
	 M317.2,137.7H317l0.1-1.6l0.6,0.3l-0.1,1.4L317.2,137.7z M317.8,136.5L317.8,136.5c0,0.1,0,0.4,0,1.1v0.1l0,0V136.5z M316.5,137.9
	l0.3-0.1l-0.1,1.3l0,0c0,0.1,0,0.3,0.1,0.4c0.1,0.1,0.1,0.2,0.2,0.3l1.8,1.1l-0.5,0.3l-0.2-0.1l0,0c0,0,0,0,0-0.1c0,0,0,0,0-0.1
	l-0.3-0.2h-0.1l-0.1-0.1l-0.3-0.2h-0.1h-0.1l-0.6-0.4c-0.2-0.1-0.3-0.4-0.2-0.6L316.5,137.9z M319.5,140.2L319.5,140.2l0.1,0.1
	L319.5,140.2z M316.9,135.8L316.9,135.8v-0.9V135.8z M319,140.8l-1.8-1.1c-0.2-0.1-0.3-0.4-0.3-0.6l0.1-1.3l0.7,0.1v0.7
	c0,0.3,0.1,0.5,0.3,0.6l1.4,0.9L319,140.8z M317.8,136.4l0.1,0.1C317.9,136.4,317.9,136.4,317.8,136.4L317.8,136.4z M317.4,140.6
	l0.2,0.1h-0.1l0,0l0,0c0,0.1,0,0.1,0,0.2l0,0h-0.1V140.6z M317.5,141.1L317.5,141.1z M317.7,141.2L317.7,141.2L317.7,141.2
	L317.7,141.2v-0.1c0,0,0,0,0-0.1l0,0l0.2,0.1l-0.1,0.3l0,0h-0.1h-0.1L317.7,141.2z M317.9,141.4L317.9,141.4l0.1-0.2l0.2,0.1h0.1
	l1.4,0.9c0,0,0,0.1,0.1,0.1l0.3,0.2v0.4L317.9,141.4L317.9,141.4z M320.3,142.5l0.2,0.1h-0.1c0,0,0,0-0.1,0.1l0,0c0,0.1,0,0.2,0,0.2
	l0,0l0,0l0,0l0,0V142.5z M322.6,140.6L322.6,140.6l0.2-0.9l0,0v-0.1l0,0L322.6,140.6C322.6,140.7,322.6,140.6,322.6,140.6
	L322.6,140.6z M316.8,134.8l-0.2,1.1l0,0l0,0c0,0,0,0,0,0.1l-0.2,1.8l0,0l0,0l0,0l0,0c0,0-0.2,1.1-0.2,1.6c0,0.2,0,0.3,0.1,0.5
	c0.1,0.1,0.1,0.2,0.2,0.2l0.6,0.4v0.4l-0.9-0.6c0,0,0,0-0.1-0.1c0,0-0.1-0.4-0.4-1.1V139c0-0.1-0.1-0.2-0.1-0.2l0,0v-0.1l0,0
	l0.1-0.4v-0.1l-0.3-0.3l0,0l0,0l0.8-3.3l0.4,0.1l0,0c0,0,0.1,0,0.1-0.1v-0.1l0,0l0.1-0.4V134h0.1h0.1l0.1-0.1L316.8,134.8z
	 M320.7,143.1L320.7,143.1L320.7,143.1L320.7,143.1L320.7,143.1L320.7,143.1L320.7,143.1L320.7,143.1c0-0.1,0-0.1,0-0.2
	c0,0,0,0,0-0.1l0,0l0.1,0.1l-0.1,0.3V143.1z M322,143.3L322,143.3c-0.1,0.1-0.2,0.1-0.3,0l-0.7-0.4l0,0v-0.1l0,0l-0.2-0.1h-0.1
	l-0.1-0.1l-0.2-0.1h-0.2l-0.2-0.1l0.5-0.3l1.8,1.1h0.1l-0.2,0.1L322,143.3z M322.7,140.9L322.7,140.9l0.3-1.1l0.3,0.3l-0.3,1.3
	L322.7,140.9z M323,139.5h-0.1l-0.1,0.1l-0.3,1l0,0c0,0.1,0,0.2,0,0.2v0.1l0,0l0,0l0,0l-0.2,0.7c0,0.1-0.1,0.1-0.1,0.2
	c-0.1,0-0.1,0-0.2,0l0,0l-1.4-0.9c0-0.1-0.1-0.2-0.1-0.3l-0.9-0.6h-0.1c0,0,0,0-0.1,0.1l-1.4-0.9c-0.2-0.1-0.3-0.3-0.3-0.6v-0.8h0.1
	c0,0,0.1-0.1,0.1-0.2v-1.2l0,0c0-0.1-0.1-0.2-0.1-0.3v-1l5.3,3.3L323,139.5z M317.8,136.2l-0.7-0.4v-1v-0.1l0.2-0.9l0.5,1.3V136.2z
	 M316.6,134L316.6,134l-0.1,0.4l-0.3-0.1l0,0l0,0l0,0l0.1,0.1h0.1l0,0l0,0l0,0l0,0v-0.1V134v-0.1v-0.1L316.6,134L316.6,134z
	 M316.1,140.5l1,0.6h0.1h0.1h0.1l0,0l0,0l0.3,0.2l0,0h0.1l0,0l0,0l0,0l0,0l2.2,1.4h0.1h0.1l0,0l0,0l0,0l0.3,0.2h0.1h0.1v0.1l0,0
	l1,0.6l0,0l-0.1,0.1h-0.1l-5.4-3.1L316.1,140.5z M323.7,138.9l-0.2,0.9l-0.4-0.3l0.2-0.9l0.5-0.6L323.7,138.9z M314.3,139L314.3,139
	L314.3,139L314.3,139l0.3,0.2c0.1,0.1,0.2,0.2,0.3,0.3l0,0l0.2,0.4l0,0H315l0,0l0,0v0.1v0.1v0.1l0.1,0.1h0.1l0,0l0,0v-0.1l0,0
	l0.3,0.5l0,0h-0.1l-0.8-0.5c-0.2-0.1-0.3-0.4-0.3-0.6L314.3,139z M321.9,144.3L321.9,144.3C321.8,144.3,321.8,144.3,321.9,144.3
	L321.9,144.3L321.9,144.3L321.9,144.3L321.9,144.3L321.9,144.3L321.9,144.3L321.9,144.3C321.8,144.3,321.8,144.3,321.9,144.3
	L321.9,144.3z M317.1,133.5L317.1,133.5L317.1,133.5L317.1,133.5L317.1,133.5c0,0.1,0,0.1-0.1,0.2l0,0
	C317.1,133.6,317.1,133.5,317.1,133.5L317.1,133.5l0.1-0.3L317.1,133.5z M314.5,134.4L314.5,134.4L314.5,134.4l0.1,0.1l0,0l-0.2,0.1
	v-0.1c0-0.1,0-0.2,0-0.4v0.1L314.5,134.4z M322.5,144.2v0.4v0.1c0,0.1-0.1,0.1-0.1,0.1c-0.1,0-0.1,0-0.2,0l-0.8-0.5l0,0l0,0l0.2-0.1
	l0,0v0.1v0.1l0.1,0.1h0.1h0.1l0,0c0,0,0,0,0-0.1v0.1v0.1l0,0l0,0l0.1,0.1c0,0,0.1,0.1,0.2,0.1l0,0h0.1l0,0l0,0l0,0v-0.1v-0.1v-0.1
	v-0.1l0,0h-0.1l0,0l0,0l0,0l0,0c0,0.1,0,0.1,0,0.2l0,0h-0.1l0,0v-0.1l0,0l0,0v-0.1c0,0,0,0,0-0.1v-0.1h0.1h0.1l0,0l0,0l0,0l0,0l0,0
	l0,0h-0.1h-0.1l0,0l0,0c0,0,0,0-0.1,0.1v0.1v-0.1l0,0l0,0l0,0l0,0l0,0l0,0l0,0l0,0l0,0l0.2-0.1C322.3,144.2,322.4,144.2,322.5,144.2
	l0.1,0.1c0,0,0,0,0.1,0L322.5,144.2z M322.6,144L322.6,144L322.6,144l-0.2-0.2h-0.1l0.3-0.1c0.1,0,0.2,0,0.2,0l0.2,0.2L322.6,144z
	 M323.4,143.2l-0.1-0.1L323.4,143.2L323.4,143.2L323.4,143.2z M317,133.5c0,0-0.1,0.3-0.2,0.3l0,0l-0.4,0.1l0,0h-0.2H316l0,0
	l-0.7,0.4c0,0,0-0.1,0-0.2l0,0l1.8-1L317,133.5z M323.1,143.7L323.1,143.7z M323.1,143.7L323.1,143.7L323.1,143.7l-0.3-0.2h-0.1l0,0
	c0.1,0,0.1,0,0.2,0h0.1h0.1l0,0l0,0l0,0l0.2,0.1L323.1,143.7z M322,145.2c-0.1,0-0.2,0-0.3-0.1l-7.5-4.6c-0.8-0.5-0.7-1.1-0.7-1.2
	l0,0c0-1.3,0.1-4.7,0.1-4.9c0-0.1,0.1-0.2,0.1-0.3l0.3-0.1v0.1v0.1l-0.1,5.1v0.1c0,0.3,0.2,0.6,0.4,0.7h0.1l7.3,4.6
	c0,0.1,0.1,0.1,0.2,0.1h0.1V145.2z M324.4,139.8v-0.2l0,0l0,0c0,0,0,0,0-0.1v-0.1c0,0,0,0,0-0.1v-0.2V139c0-0.1,0-0.1,0-0.2v0.2
	c0-0.1-0.1-0.1-0.2-0.1v-0.1v-0.1c0,0,0,0,0-0.1l0,0l-0.1-0.1l0,0v-0.1l-0.1-0.1l0,0c0-0.1-0.1-0.2-0.1-0.3v0l0,0v-0.6
	c0,0,0,0,0-0.1l0,0l-0.5-0.3l0,0c0-0.1-0.1-0.1-0.1-0.1h-0.1l-2.4-1.5l0,0l-0.1-0.1c0,0-0.1,0-0.2,0l-2.3-1.4l0,0
	c0-0.1-0.1-0.1-0.1-0.1s0,0-0.1,0l0,0c0,0,0,0-0.1,0l-0.6-0.4h-0.1h-0.1l-1.9,1l-0.3-0.2c-0.1-0.1-0.3-0.1-0.4,0h-0.1
	c0,0,0-0.1-0.1-0.1l-6.5-3.9l30.4-17.3l9.6,0.3l17.8,10.4l0,0l-34.9,20.2l-6.1-3.6c0.1-0.1,0.1-0.2,0-0.3
	C324.6,139.7,324.4,139.7,324.4,139.8L324.4,139.8z M330.7,143.7l34.9-20.2v-0.1l1.6,0.9l-36.5,21.1V143.7z"/>
<path d="M211.9,100.8c-0.2-0.9-1-1.7-1.9-1.9l-0.1-0.2c0.1-0.5-0.1-1-0.3-1.4c-0.1-0.1-0.3-0.5-0.5-0.8l-0.1-0.2l-0.3-0.4l-0.4-0.8
	c-0.4-0.7-0.6-1.4-0.8-2.2c0-0.3,0.2-0.9,0.2-0.9v-0.1v-0.3v-0.1l0.2-4.8c0-0.1,0-0.1,0-0.2l0.6-0.3c0.1-0.1,0.1-0.2,0.1-0.3
	c-0.1-0.1-0.2-0.1-0.3-0.1l-0.4,0.2c-0.1-0.2-0.3-0.4-0.4-0.5l-3.5-2.3c-0.2-0.6-0.6-1-1.1-1.3c-0.3-0.2-0.6-0.3-1-0.3
	c-0.1,0-0.3,0-0.4,0L188.1,73l4.3-2.4c0.1-0.1,0.2-0.2,0.1-0.3c-0.1-0.1-0.2-0.2-0.3-0.1l0,0l-4.5,2.6l-5.3-3.4
	c-0.2-0.5-0.6-1-1-1.3c-0.3-0.2-0.6-0.3-1-0.3c-0.1,0-0.3,0-0.4,0.1l-17.6-11.5c-0.2-0.5-0.6-1-1.1-1.4c-0.3-0.2-0.6-0.3-1-0.3
	c-0.1,0-0.3,0-0.4,0l-4.6-3c-0.3-0.2-0.7-0.3-1.1-0.3c-0.1,0-0.2,0-0.4,0l-0.5,0.1h-0.2c-0.2,0-0.3,0-0.4,0.1l-0.3,0.2l4-2.3
	c0.1-0.1,0.1-0.2,0.1-0.3c-0.1-0.1-0.2-0.1-0.3-0.1l-5.4,3.1c-0.1,0.1-0.2,0.2-0.1,0.3c0,0.1,0.1,0.1,0.2,0.1l-1.5,0.8v-0.1
	c-0.1-0.1-0.2-0.2-0.3-0.1l-1.8,1c-0.1,0.1-0.2,0.2-0.1,0.3l0,0l-1.4,0.7c-0.1-0.1-0.2-0.1-0.3-0.1l-4.3,2.5l-3.1,1.6l-2.5-1.6
	c-0.6-0.4-1.4-0.7-2.2-0.7c-0.6,0-1.1,0.2-1.6,0.5l-1.6,0.8c-1.2,0.6-1.9,1.8-1.8,3.1c0,0.4,0,0.8,0.1,1.2l-1.5,40.6
	c-0.1,0.4-0.2,0.8-0.2,1.2c0,1.1,0.3,2.2,0.8,3.2l-1.9,1.1c-0.1,0.1-0.2,0.2-0.1,0.3s0.2,0.2,0.3,0.1l0,0l1.9-1.1
	c0.6,1,1.4,1.9,2.4,2.5l0.1,0.1c0.3,0.1,0.5,0.2,0.6,0.2l20.9,13.7l-0.4,0.2c-0.1,0.1-0.2,0.2-0.1,0.3c0,0.1,0.1,0.1,0.2,0.1h0.1
	l0.6-0.3l33.8,22l-1.9,1.1c-0.1,0.1-0.2,0.2-0.1,0.3s0.2,0.2,0.3,0.1l0,0l2.1-1.2l1.8,1.1c0.4,0.4,0.9,0.7,1.4,1
	c0.6,0.3,1.2,0.5,1.8,0.5c0.3,0,0.7-0.1,1-0.2c0.5-0.2,2-1.1,2.3-1.2c1-0.6,1.6-1.7,1.6-2.9l0.1-3.4c0-0.1,0-0.2,0.1-0.3l3-1.7
	l0.2-0.1c0.1,0,0.2-0.1,0.3-0.2l1.7-1c0.3-0.2,0.5-0.4,0.7-0.7l0.8-0.5c0.1-0.1,0.2-0.2,0.1-0.3s-0.2-0.2-0.3-0.1l0,0l-0.3,0.2
	c0-0.1,0-0.1,0-0.2c0.3-0.4,0.5-0.9,0.4-1.4c0-0.3-0.1-0.5-0.2-0.8l0.3-0.2c0.4-0.2,0.6-0.5,0.7-0.9l0.1-0.4c0.1-0.4,0-0.8-0.3-1.1
	l6.7-26.1l0.4-0.4c0.2-0.2,0.4-0.4,0.5-0.7l0.1-0.4v-0.1c0-0.2,0-0.4,0-0.5v-1C212,102.5,212.2,101.6,211.9,100.8z M210.6,100.9
	c0.1,0.2,0.1,0.3,0.2,0.5l-0.1-0.2L210.6,100.9L210.6,100.9z M209.9,100.1v0.2l0,0l-0.1-0.2H209.9z M209.7,100.5l0.1,0.2h-0.2
	l0.3,0.4l0.1,0.2l-0.1,0.3h0.3h0.1l0,0l0.2,0.4c0,0.1,0,0.1,0,0.2c-0.8-0.3-1.2-1.1-1-1.9l0,0C209.5,100.3,209.6,100.4,209.7,100.5
	L209.7,100.5z M210.3,100.9L210.3,100.9L210.3,100.9L210.3,100.9z M209.3,101.5c0.2,0.4,0.4,0.7,0.8,0.8c-0.1,0-0.2,0-0.3-0.1
	c-0.2-0.2-0.4-0.4-0.6-0.7c-0.2-0.4-0.3-0.8-0.1-1.2C209.1,100.8,209.1,101.2,209.3,101.5L209.3,101.5z M209.5,99.8l-0.1,0.1
	c-0.2-0.1-0.4-0.1-0.6,0l0.2-0.8L209.5,99.8z M208.8,98.5c0.1-0.1,0.1-0.1,0.1-0.2c0,0.1,0,0.3,0,0.4l0,0h-0.1V98.5z M208.6,100.7
	c0-0.1,0-0.2,0.1-0.2l0,0v-0.1c0-0.1,0.1-0.2,0.2-0.2l0,0h0.1c-0.3,0.5-0.3,1.1,0,1.6c0.1,0.3,0.4,0.6,0.7,0.8
	c0.2,0.1,0.3,0.2,0.5,0.2h0.1l-0.1,0.1c-0.2,0.1-0.5,0-0.6-0.1c-0.6-0.4-0.9-1.1-0.9-1.8L208.6,100.7z M208.8,102.9l-0.9-0.9
	c0,0,0,0,0-0.1c0.1-0.3,0.2-0.6,0.3-0.9C208.1,101.7,208.3,102.3,208.8,102.9L208.8,102.9z M202.6,83.5c0.1,0.2,0.1,0.3,0.2,0.5
	l-0.1-0.2L202.6,83.5L202.6,83.5L202.6,83.5z M202.6,84.2h0.2c0,0.1,0,0.1,0,0.2s-0.1,0.2-0.1,0.3l-0.1-0.1
	C202.7,84.5,202.7,84.3,202.6,84.2L202.6,84.2z M202.5,83.3L202.5,83.3l-0.2-0.1l-0.4-0.5C202.2,82.9,202.3,83.1,202.5,83.3
	L202.5,83.3z M202.4,83.6L202.4,83.6L202.4,83.6L202.4,83.6z M201.9,82.8V83l0,0l-0.1-0.2H201.9z M201.4,82.9L201.4,82.9
	c0.1,0.1,0.1,0.1,0.2,0.2l0.1,0.2h-0.2l0.3,0.4l0.1,0.2l-0.1,0.3h0.3h0.1l0,0l0.2,0.4c0,0.1,0,0.2,0,0.2c-0.4-0.1-0.7-0.4-0.8-0.8
	C201.3,83.7,201.3,83.3,201.4,82.9L201.4,82.9z M201.1,83.1c-0.1,0.4,0,0.8,0.2,1.1c0.2,0.4,0.4,0.6,0.8,0.8c-0.1,0-0.2,0-0.3-0.1
	c-0.2-0.2-0.4-0.4-0.6-0.7C201,83.9,200.9,83.5,201.1,83.1L201.1,83.1z M201,84.4c0.1,0.3,0.4,0.6,0.7,0.8c0.2,0.1,0.3,0.2,0.5,0.2
	h0.1c0,0,0,0.1-0.1,0.1c-0.2,0.1-0.5,0-0.6-0.1c-0.3-0.2-0.5-0.5-0.7-0.8c-0.4-0.7-0.3-1.4,0.1-1.6l0,0h0.1
	C200.6,83.3,200.6,83.9,201,84.4L201,84.4z M181.2,69.6c0.1,0.2,0.1,0.3,0.2,0.5l-0.1-0.2L181.2,69.6L181.2,69.6L181.2,69.6z
	 M181.2,70.3h0.2c0,0.1,0,0.1,0,0.2s-0.1,0.2-0.1,0.3l-0.1-0.1C181.3,70.5,181.2,70.4,181.2,70.3L181.2,70.3z M180.7,68.9
	c0.2,0.1,0.3,0.3,0.4,0.4H181l-0.1-0.1l-0.4-0.5C180.6,68.9,180.6,68.9,180.7,68.9L180.7,68.9z M181,69.7L181,69.7L181,69.7
	L181,69.7z M180.5,68.9v0.2l0,0l-0.1-0.2H180.5z M180,69L180,69c0.1,0.1,0.1,0.1,0.2,0.2l0.1,0.2h-0.2l0.3,0.4l0.1,0.2l-0.1,0.3h0.3
	h0.1l0,0l0.2,0.4c0,0.1,0,0.1,0,0.2c-0.1,0-0.2-0.1-0.3-0.1c-0.2-0.2-0.4-0.4-0.6-0.7C179.9,69.7,179.9,69.4,180,69z M179.7,69.1
	c-0.1,0.4,0,0.8,0.2,1.1c0.1,0.3,0.4,0.6,0.7,0.8l0.1,0.1c-0.1,0-0.2,0-0.3-0.1c-0.2-0.2-0.4-0.4-0.6-0.7
	C179.5,70,179.5,69.5,179.7,69.1L179.7,69.1z M179.5,70.4c0.1,0.3,0.4,0.6,0.7,0.8c0.2,0.1,0.3,0.2,0.5,0.2h0.1c0,0,0,0.1-0.1,0.1
	c-0.2,0.1-0.5,0-0.6-0.1c-0.6-0.4-0.9-1.1-0.9-1.8c0-0.2,0.1-0.5,0.3-0.6l0,0h0.1C179.2,69.4,179.2,70,179.5,70.4L179.5,70.4z
	 M161.1,56.4c0.1,0.2,0.1,0.3,0.2,0.5l-0.1-0.2L161.1,56.4L161.1,56.4L161.1,56.4z M161.1,57.1h0.2c0,0.2,0,0.4-0.1,0.5l-0.1-0.1
	C161.2,57.4,161.1,57.3,161.1,57.1L161.1,57.1z M161,56.2L161,56.2h-0.2l-0.4-0.5C160.7,55.8,160.9,56,161,56.2L161,56.2z
	 M160.9,56.6L160.9,56.6L160.9,56.6L160.9,56.6z M160.4,55.7V56l0,0l-0.1-0.2L160.4,55.7z M159.9,55.9L159.9,55.9
	c0.1,0.1,0.1,0.1,0.2,0.2l0.1,0.2H160l0.3,0.4l0.1,0.2l-0.1,0.3h0.3h0.1l0,0l0.2,0.4c0,0.1,0,0.2,0,0.2
	C160.1,57.4,159.7,56.6,159.9,55.9L159.9,55.9z M159.6,56c-0.1,0.4,0,0.8,0.2,1.1c0.2,0.4,0.4,0.6,0.8,0.8c-0.4-0.1-0.7-0.4-0.9-0.8
	c-0.1-0.3-0.2-0.6-0.2-0.8C159.5,56.2,159.5,56.1,159.6,56L159.6,56z M159.4,57.3c0.2,0.5,0.6,0.9,1.2,1h0.1c0,0,0,0.1-0.1,0.1
	c-0.4,0.2-1-0.2-1.3-0.9s-0.3-1.4,0.1-1.6h0.1c-0.2,0.1-0.2,0.3-0.2,0.6C159.2,56.7,159.3,57.1,159.4,57.3L159.4,57.3z M159.4,55.5
	c-0.1,0-0.2,0-0.2,0.1l0,0c-0.5,0.3-0.6,1.1-0.2,2c0.2,0.6,0.8,1,1.4,1.1c0.1,0,0.2,0,0.3-0.1c0.2-0.1,0.3-0.3,0.4-0.5l0.1-0.1l0,0
	l0.1-0.1l0,0c0.3-0.3,0.4-0.6,0.2-1l17.9,11.7c-0.1,0-0.1,0-0.2,0.1l0,0c-0.3,0.2-0.5,0.5-0.4,0.8c0,0.8,0.4,1.6,1.1,2.1
	c0.2,0.1,0.4,0.2,0.6,0.2c0.1,0,0.2,0,0.3-0.1c0.2-0.1,0.3-0.3,0.4-0.5l0.1-0.1l0,0l0.1-0.1l0,0c0.2-0.2,0.3-0.4,0.3-0.6
	c0-0.1,0-0.3,0-0.4l5.2,3.4l0.1,0.1l13.8,9c-0.1,0-0.1,0-0.2,0.1c-0.5,0.3-0.6,1.1-0.2,2c0.2,0.4,0.4,0.7,0.8,0.9
	c0.2,0.1,0.4,0.2,0.6,0.2c0.1,0,0.2,0,0.3-0.1c0.2-0.1,0.3-0.3,0.4-0.5l0.3-0.1l0,0c0.2-0.2,0.3-0.4,0.3-0.6c0-0.1,0-0.3,0-0.4
	l3.6,2.4c0.2,0.1,0.1,0.2,0.1,0.2l-0.2,4.9l-0.1-0.1l-5.2,5.6l-42.5-27.7l-4.4-12l0,0l0.2-4.8L159.4,55.5z M178.1,130.9
	c0.1,0.3,0.4,0.6,0.7,0.8c0.2,0.1,0.3,0.2,0.5,0.2h0.1l-0.1,0.1c-0.2,0.1-0.5,0-0.6-0.1c-0.3-0.2-0.5-0.5-0.7-0.8
	c-0.2-0.4-0.3-0.9-0.2-1.3c0-0.1,0.1-0.2,0.2-0.3l0,0h0.1c-0.1,0.1-0.1,0.2-0.2,0.3C177.8,130.1,177.9,130.5,178.1,130.9
	L178.1,130.9z M178.5,130.7c0.2,0.4,0.4,0.6,0.8,0.8c-0.1,0-0.2,0-0.3-0.1c-0.2-0.2-0.4-0.4-0.6-0.7c-0.2-0.3-0.2-0.7-0.2-1.1
	c0-0.1,0-0.1,0.1-0.1C178.2,129.9,178.3,130.4,178.5,130.7L178.5,130.7z M179,130.2l0.1,0.2l-0.1,0.4h0.3h0.1l0,0l0.2,0.4
	c0,0.1,0,0.1,0,0.2c-0.4-0.1-0.7-0.4-0.8-0.8c-0.2-0.3-0.2-0.7-0.2-1.1v-0.1l0,0c0.1,0.1,0.1,0.1,0.2,0.2l0.1,0.2h-0.2L179,130.2z
	 M179.5,129.7l-0.4-0.5l0.2,0.1c0.2,0.1,0.3,0.3,0.4,0.4H179.5L179.5,129.7z M179.5,130.1L179.5,130.1L179.5,130.1L179.5,130.1z
	 M179.1,129.5L179.1,129.5l-0.1-0.2h0.1V129.5z M179.1,132.2c0.1,0,0.2,0,0.3-0.1c0.2-0.1,0.3-0.3,0.4-0.5l0,0l0.1-0.1l0,0l0.1-0.1
	l0,0c0.2-0.2,0.3-0.4,0.3-0.6c0-0.7-0.3-1.4-0.9-1.8c-0.2-0.1-0.4-0.2-0.6-0.2l0,0l-0.3,0.2c-0.2-0.1-0.4-0.1-0.6,0l0,0
	c-0.2,0.1-0.3,0.3-0.4,0.5c-0.1,0.5-0.1,1.1,0.2,1.5c0.2,0.3,0.4,0.6,0.7,0.8l-1-0.6l-0.1-0.2c0,0,0-0.1-0.1-0.1l-0.4-0.3l0.3-3.6
	l4.9,3.2l-1.4,2.9l-0.6-0.4h-0.1h-0.2l-1.1-0.7C178.7,132.2,178.9,132.3,179.1,132.2L179.1,132.2z M180,130.7c0,0.2,0,0.4-0.1,0.5
	l-0.1-0.1c0-0.1,0-0.3-0.1-0.4H180L180,130.7z M179.8,130L179.8,130c0.1,0.2,0.1,0.3,0.2,0.5l-0.1-0.2L179.8,130L179.8,130z
	 M176.7,126.7l-0.8,0.1h-0.1c0-0.1-0.1-0.1-0.1-0.1h-0.1l-2-1.3h0.1l2.1,1.4l0,0L176.7,126.7c0.1-0.1,0.2-0.1,0.3,0h-0.1
	C176.8,126.6,176.8,126.7,176.7,126.7L176.7,126.7z M176.7,126.9l-0.3,3.6l0,0l-0.8,0.1h-0.1l0.3-3.6h0.1L176.7,126.9z M153.6,111.6
	l-0.8,0.1h-0.1l-5.3-3.4c-1.7-1.3-2.5-3.5-2.1-5.5c0.2-1.5,0.5-3.6,0.8-5.7l0,0l0.2-0.1l-0.9,5.8c-0.4,4,2,5.5,2,5.5l5.2,3.4l0,0
	l0.8-0.1C153.5,111.6,153.6,111.6,153.6,111.6C153.7,111.6,153.7,111.6,153.6,111.6C153.6,111.6,153.6,111.6,153.6,111.6
	L153.6,111.6z M153.6,111.9l-0.2,3.7l0,0l-0.8,0.1h-0.1l0.2-3.7h0.1L153.6,111.9z M135.1,97.5l1.9,1.2c0.8,0.5,1.3,1.3,1.7,2.1
	l-3,1.7c-0.1,0-0.1,0.1-0.1,0.2c-0.5-0.8-1.2-1.6-2-2.2l-1.9-1.2c-0.5-0.4-0.8-1-0.9-1.6l3.6-1.9C134.3,96.5,134.6,97.1,135.1,97.5z
	 M144.8,59.7L144.8,59.7L144.8,59.7h0.2h0.4h0.4c0,0,0,0.1-0.1,0.1c0,0.1,0,0.2,0,0.3l-0.1,1.9v0.1l0.1,0.1v0.4
	c-0.1,0-0.1,0.1-0.1,0.2l0,0l-0.6,0.5l-0.1,0.1c-0.1,0-0.2,0.1-0.2,0.1c0,0.1,0,0.1,0,0.2l-7.1,26.5l0,0v0.2c0,0,0,0.1,0.1,0.1
	c0.2,0.1,0.3,0.2,0.4,0.3v0.1l0,0c0,0,0,0.1-0.1,0.1l-0.1,0.1l-0.8,0.4c-0.1,0-0.2,0-0.2,0.1s0,0.1,0,0.2l-0.1,0.2l0,0
	c0,0-0.1,1.2-0.1,2.3l-1.7,0.9l9.3-34.8c0.1-0.3,0.2-0.5,0.4-0.7l0,0l0.2-0.2c0,0,0,0.1-0.1,0.1l0,0L144.8,59.7z M146.6,61
	c0.1,0.3,0.4,0.6,0.7,0.8c0.2,0.1,0.3,0.2,0.5,0.2h0.1c0,0,0,0.1-0.1,0.1c-0.2,0.1-0.5,0-0.6-0.1c-0.3-0.2-0.5-0.5-0.7-0.8
	c-0.3-0.7-0.3-1.4,0-1.6h0.1c-0.1,0.1-0.2,0.3-0.2,0.5C146.3,60.4,146.4,60.7,146.6,61z M146.9,60.8c0.2,0.4,0.4,0.7,0.8,0.8
	c-0.1,0-0.2,0-0.3-0.1c-0.5-0.4-0.8-0.9-0.8-1.5c0-0.1,0-0.3,0.1-0.4c0,0,0,0.1,0,0.2C146.7,60.1,146.8,60.5,146.9,60.8L146.9,60.8z
	 M147.4,60.3l0.1,0.2l-0.1,0.3h0.3h0.1l0,0l0.2,0.4c0,0.1,0,0.1,0,0.2l0,0c-0.4-0.1-0.7-0.4-0.8-0.8c-0.1-0.3-0.2-0.6-0.2-0.8
	c0-0.1,0-0.2,0.1-0.3l0,0c0.1,0.1,0.1,0.1,0.2,0.2l0.1,0.2h-0.2L147.4,60.3z M148,59.9l-0.4-0.5l0.2,0.1c0.2,0.1,0.3,0.3,0.4,0.4
	H148L148,59.9z M148,60.3L148,60.3L148,60.3L148,60.3z M147.5,59.6L147.5,59.6l-0.1-0.2l0,0h0.1V59.6z M146.9,62.1
	c0.2,0.1,0.4,0.2,0.6,0.2c0.1,0,0.2,0,0.3-0.1c0.2-0.1,0.3-0.3,0.4-0.5l0.1-0.1l0,0l0.1-0.1l0,0c0.2-0.2,0.3-0.4,0.3-0.6
	c0-0.3-0.1-0.7-0.2-1c-0.1-0.3-0.3-0.5-0.6-0.7l2-0.3l0,0l-0.1,0.6v0.4l-0.9,3.5c-0.2,0-1.9-0.6-3-1L146,62v-0.1l-0.1-0.1l0.1-1.3
	c0,0.2,0.1,0.4,0.2,0.5C146.3,61.6,146.6,61.9,146.9,62.1L146.9,62.1z M148.4,60.8c0,0.1,0,0.1,0,0.2c0,0.1-0.1,0.2-0.1,0.3
	l-0.1-0.2c0-0.1,0-0.2,0-0.3H148.4L148.4,60.8z M148.2,60.1L148.2,60.1c0.1,0.2,0.1,0.3,0.2,0.5l-0.1-0.2L148.2,60.1L148.2,60.1z
	 M148.7,63.9l-0.1,0.4c0,0.1-0.1,0.2-0.2,0.2l-3.2-1l0.6-0.4l0,0C147,63.4,148.4,63.8,148.7,63.9L148.7,63.9z M140,95.5l-0.1,0.5
	v-0.3c0.1-0.2,0.1-0.4,0-0.5c0,0,0,0-0.1-0.1c0-0.4,0-0.7-0.2-1.1c-0.1-0.3-0.4-0.6-0.7-0.8c0,0-0.1,0-0.1-0.1s0-0.1-0.1-0.2
	l-1.4-1.3l0.7-0.3l1.4,1.4C140,93.7,140.2,94.6,140,95.5z M139.7,92.7c0.6,0.6,1,1.1,1.1,1.2l-0.4,1.3
	C140.5,94.3,140.3,93.4,139.7,92.7L139.7,92.7z M138.5,94.4l0.1,0.2l-0.1,0.3h0.3h0.1l0,0l0.2,0.4c0,0.1,0,0.1,0,0.2
	c-0.1,0-0.2-0.1-0.3-0.1c-0.2-0.2-0.4-0.4-0.6-0.7c-0.2-0.3-0.3-0.8-0.1-1.1c0.1,0,0.2,0.1,0.2,0.2l0.1,0.2h-0.2L138.5,94.4z
	 M138.5,93.4L138.5,93.4L138.5,93.4L138.5,93.4l0.1,0.2l0,0L138.5,93.4z M139.1,93.9l-0.4-0.5c0.1,0,0.1,0,0.2,0.1
	c0.2,0.1,0.3,0.3,0.4,0.4H139.1L139.1,93.9z M139.1,94.3L139.1,94.3L139.1,94.3L139.1,94.3z M138,94.8c0.1,0.3,0.4,0.6,0.7,0.8
	l0.1,0.1C138.4,95.6,138.1,95.3,138,94.8c-0.3-0.3-0.4-0.7-0.2-1.1C137.7,94.1,137.8,94.5,138,94.8L138,94.8z M138.1,93.2
	L138.1,93.2l-0.1,0.1c-0.2-0.1-0.4-0.1-0.6,0l0,0c-0.5,0.3-0.6,1.1-0.2,2c0.1,0.3,0.3,0.5,0.6,0.8l0,0c-0.5-0.3-0.8-0.9-0.8-1.5
	c0-1,0.1-2.1,0.1-2.3v-0.1L138.1,93.2L138.1,93.2z M137.4,95.2c-0.4-0.7-0.3-1.4,0.1-1.6c0.1,0,0.1,0,0.2,0c-0.3,0.5-0.3,1.1,0,1.6
	c0.2,0.5,0.6,0.9,1.2,1h0.1c0,0,0,0.1-0.1,0.1C138.4,96.3,137.8,95.8,137.4,95.2L137.4,95.2z M138.6,96.4c0.1,0,0.2,0,0.3-0.1
	c0.2-0.1,0.3-0.3,0.4-0.5l0.1-0.1l0,0h0.1l-0.1,1.3h-0.1l-1.1-0.7C138.3,96.4,138.4,96.4,138.6,96.4L138.6,96.4z M139.5,95.3
	c0,0,0,0.1-0.1,0.1l-0.1-0.1c0-0.1,0-0.3-0.1-0.4h0.2C139.5,95,139.5,95.1,139.5,95.3C139.5,95.2,139.5,95.3,139.5,95.3L139.5,95.3z
	 M139.3,94.2L139.3,94.2c0.1,0.2,0.1,0.3,0.2,0.5l-0.1-0.2L139.3,94.2L139.3,94.2z M136.6,94.7c0.1,0.6,0.4,1.1,0.9,1.5l1.7,1.1h0.1
	h0.1l0.1,0.1l0,0l0.1,0.1h0.1l0.1,0.1c0,0,0,0,0,0.1l-0.2,0.5v0.1v0.2c0,0,0,0,0,0.1c0.3,0.4,0.6,0.8,0.8,1.2l-1.6,0.9
	c-0.4-0.9-1-1.7-1.8-2.2l-1.8-1.2c-0.4-0.4-0.6-1-0.5-1.6L136.6,94.7z M131.5,99.6l1.9,1.2c0.8,0.7,1.5,1.5,2.1,2.4
	c1.6,2.9,4.5,8.5,4.6,8.8l0,0c0.1,0.2,0.3,0.4,0.4,0.6c-0.5-0.1-1-0.2-1.4-0.4l-6.5-4.2c-0.8-0.6-1.4-1.3-1.9-2.1l-0.2-0.4
	c-0.4-0.8-0.6-1.7-0.6-2.6l0.1-3.5c0.1-0.5,0.3-0.9,0.5-1.3C130.7,98.7,131,99.2,131.5,99.6L131.5,99.6z M140.4,111.9L140.4,111.9
	L140.4,111.9c-0.1-0.2-0.3-0.6-0.7-1.3l-3.9-7.4l-0.1-0.2h0.1h0.1l2.9-1.7c0,0.1,0,0.1,0.1,0.2l3.1,9.5c0.1,0.3,0.3,0.5,0.5,0.7
	l-1.5,0.9C140.8,112.4,140.6,112.2,140.4,111.9L140.4,111.9z M142.2,110.9l-3.1-9.6c0-0.1-0.1-0.2-0.1-0.2l1.6-0.9l0.1,0.3
	c0.1,0.4,2.9,9.1,3.1,9.6c0.1,0.2,0.3,0.5,0.4,0.7l-1.6,0.9C142.5,111.4,142.4,111.2,142.2,110.9L142.2,110.9z M144.1,109.9
	c-0.2-0.4-3.1-9.4-3.1-9.5l-0.1-0.3l0.1-0.1c0.1-0.1,0.1-0.2,0.1-0.3c-0.1-0.1-0.2-0.1-0.3-0.1h-0.1c-0.2-0.4-0.5-0.9-0.8-1.2v-0.2
	l0.2-0.5c0.1,0,0.1-0.1,0.1-0.1l1-3.6c0.1-0.2,0-0.4-0.1-0.5l-2.7-2.8l0,0c-0.1-0.2-0.3-0.3-0.4-0.4v-0.1l7-26.4l3.4,1.1h0.1
	c0.3,0,0.5-0.2,0.6-0.5l0.2-0.7v-0.1l0.9-3.5v-0.4l0.1-0.7l0.2-0.1c0.8-0.1,1.6-0.4,2.1-1c0.2-0.2,0.4-0.5,0.6-0.8l-0.2,0.5
	l-2.2,8.3l-0.1,0.6l-1.3,8.2c-0.1,0.3,0,0.5,0.2,0.7l-2.2,14.3c-0.2,0-0.4,0.2-0.4,0.4c0,0.1-0.6,3.2-1.1,6.5l0,0
	c-0.1,0.1-0.2,0.2-0.1,0.3l0,0c-0.3,2.1-0.7,4.2-0.8,5.7c-0.4,2.2,0.4,4.4,2.2,5.8l5.1,3.3l0,0l-0.2,3.6l-7.5-4.9
	C144.4,110.4,144.3,110.2,144.1,109.9L144.1,109.9z M173.2,81.3c0.1,0.1,0.2,0.2,0.3,0.1l1.7-1l0.1-0.1l25.9,16.9l-2.1,7.2
	c-0.3-0.2-0.7-0.2-1-0.2c-0.3,0.1-0.5,0.4-0.6,0.8l-2.3,8c0,0-0.4,0.8,0.5,2l0,0l0.3,0.3l-1.6,5.5c-0.2,0.7-0.6,1.2-1.2,1.5
	c-0.6,0.1-1.2,0-1.8-0.3l-11.3-7.4c0-0.8-0.3-1.6-1-2.1l-6.9-4.5c-0.2-0.2-0.5-0.2-0.8-0.2c-0.3,0.1-0.6,0.3-0.7,0.6l-11.3-7.3
	c-1.4-1.1-2.2-2.8-2.2-4.6l0.4-6l0.2-0.1h0.1c0.2,0,0.4-0.1,0.6-0.2c0.2-0.1,0.3-0.3,0.4-0.4l2.8-1.6c0.1-0.1,0.2-0.2,0.1-0.3
	c-0.1-0.1-0.2-0.2-0.3-0.1l0,0l-2.4,1.4l0.6-9.1c0-0.9-0.4-1.7-1.1-2.2l0.5-8.2L175,80l-1.6,0.9C173.2,81,173.2,81.2,173.2,81.3
	L173.2,81.3L173.2,81.3z M198,104.8l-0.1,0.1c0.1-0.2,0.2-0.3,0.4-0.4c0.3-0.1,0.5,0,0.8,0.1l-0.3,0.3
	C198.5,104.8,198.3,104.8,198,104.8L198,104.8z M198.6,105.2l-2.8,9.5c-0.6-1-0.3-1.5-0.3-1.5l2.1-7.4l0,0c0.1-0.4,0.3-0.6,0.5-0.7
	S198.5,105.1,198.6,105.2L198.6,105.2z M173.5,125.2C173.5,125.2,173.4,125.2,173.5,125.2c-0.1-0.1-0.2-0.2-0.1-0.3v-0.1h0.1
	c0,0,0,0.1,0.1,0.1C173.5,125,173.5,125.1,173.5,125.2L173.5,125.2z M173.3,124.5l-11-7.2l4.4-2.2h0.1l10.6,6.9L173.3,124.5z
	 M159.7,116.3l1.8,1.1l-0.1,0.1L159.7,116.3L159.7,116.3z M159.6,115.4l-2.4-1.5l0.4,0.2l2.1,1.4c0.1,0,0.1,0.1,0.1,0.1l0,0l0,0l0,0
	l0,0c0-0.1,0-0.1-0.1-0.2C159.8,115.4,159.7,115.4,159.6,115.4L159.6,115.4z M159.7,116.1l0.2-0.4c0,0,0.1-0.1,0.1-0.2
	s-0.1-0.2-0.2-0.2l-2.1-1.4l-0.9-0.4l-0.6-0.6l-2.1-1.4c-0.2-0.1-0.4-0.1-0.6-0.1l-0.8,0.1l-5.2-3.4c0,0-2.4-1.4-1.9-5.3l0.9-5.9
	l3.5-2l-0.4,5.4c0,0-0.2,3.5,2.5,5.3l14.3,9.3l-4.8,2.4L159.7,116.1z M156.3,113.3l-2.3-1.5c0-0.1-0.1-0.2-0.2-0.2l0.1,0.1l2.1,1.4
	L156.3,113.3z M151.3,93.8c-0.1-0.1-0.2-0.2-0.3-0.1l-0.2,0.1l0.3-4l5.8,0.5l-0.8,0.4c-0.1,0.1-0.2,0.2-0.1,0.3
	c0.1,0.1,0.2,0.2,0.3,0.1l0,0l0.9-0.5l-0.3,5.8c-0.1,1.9,0.8,3.7,2.3,4.9l11.3,7.4l-3.6,5.6l-14.2-9.3c-1.6-1.2-2.5-3.1-2.2-5.1
	l0.4-5.6l0.5-0.3C151.5,94.1,151.5,93.9,151.3,93.8C151.4,93.8,151.4,93.8,151.3,93.8L151.3,93.8z M155.5,89.9L157,90l0,0
	L155.5,89.9z M179.1,114.7l-1.4,6.6l-10.4-6.8l3.4-5.3L179.1,114.7z M171,109c0.1-0.2,0.2-0.3,0.4-0.3c0.1,0,0.2,0,0.3,0.1l6.9,4.5
	c0.3,0.3,0.5,0.6,0.6,1.1L171,109z M177.8,121.6c0,0.1,0,0.1-0.1,0.2l-10.6-6.9l0.1-0.2L177.8,121.6z M152.6,105.3l14.2,9.3
	l-0.1,0.1l-14.4-9.4c-2.5-1.7-2.4-5-2.4-5l0.4-5.6l0.3-0.2l-0.4,5.4C150,102.1,150.9,104.1,152.6,105.3L152.6,105.3z M150.6,93.9
	l-0.3,0.2l0.3-4.4h0.3L150.6,93.9z M150.5,89.2l-2.5,0.5l2.2-14.2l1.1-0.3L150.5,89.2z M150.3,75.2c0-0.1-0.1-0.2-0.2-0.2
	c0,0,0-0.1-0.1-0.1l1.3-0.3V75L150.3,75.2z M150.1,75.2H150h-0.1c-0.1-0.1-0.2-0.2-0.2-0.3h0.1c0,0.1,0.1,0.1,0.1,0.2
	C150,75.1,150.1,75.2,150.1,75.2L150.1,75.2z M150,75.4h0.1l-2.2,14.3l0,0h-0.1L150,75.4z M150.4,89.7l-0.3,4.5l-3.4,2l0.9-5.9
	C148,90.3,149.7,89.9,150.4,89.7L150.4,89.7z M147.5,90L147.5,90C147.4,90,147.5,90,147.5,90L147.5,90z M147.4,90.3l-0.9,6l-0.2,0.1
	C146.8,93.5,147.2,90.9,147.4,90.3L147.4,90.3z M162.2,117.3l11.1,7.2h-0.1L162.2,117.3L162.2,117.3z M177.7,122l0.3,0.3l-4.3,2.7
	c0-0.1,0-0.2,0-0.2c0-0.1,0-0.1-0.1-0.2L177.7,122z M177.9,121.8c0-0.1,0.1-0.1,0.1-0.2l0.3,0.3c0,0.1-0.1,0.1-0.1,0.2L177.9,121.8z
	 M178.1,121.4l1.4-6.7l0.4,0.1l-1.4,6.9L178.1,121.4z M179.5,114.4c0-0.6-0.3-1.1-0.7-1.4l-6.9-4.5c-0.1-0.1-0.3-0.2-0.5-0.2
	c-0.1,0-0.2,0.1-0.3,0.1c0.1-0.2,0.3-0.3,0.5-0.4c0.2,0,0.4,0,0.6,0.1l6.9,4.5c0.6,0.4,0.9,1.1,0.9,1.8H179.5z M158,78.7
	c0.3,0.3,0.5,0.8,0.5,1.3c0,1-0.6,9.1-0.6,9.2c0,0.2-0.1,0.3-0.2,0.5c-0.1,0.1-0.3,0.1-0.4,0.1l0,0L158,78.7z M157.8,78.3l-5.7-3.2
	v-0.4L158,78L157.8,78.3z M158.8,80c0-0.6-0.3-1.2-0.8-1.6l0.2-0.3c0.6,0.5,0.9,1.2,0.9,1.9l-0.6,9.2c0,0.1,0,0.1,0,0.1l-0.5,0.3
	c0.1-0.1,0.1-0.3,0.1-0.4C158.3,88.9,158.9,81,158.8,80L158.8,80z M158.1,77.7l-6-3.3l0.5-7.9V66l1.7-8.3l4.2,11.7L158.1,77.7z
	 M152.1,75.5l5.6,3.1L157,89.8l-5.8-0.5L152.1,75.5z M151,89.2h-0.3l0.9-14c0.1,0,0.2,0.1,0.3,0.1L151,89.2z M151.6,74.9v-0.4
	c0.1,0,0.2,0,0.3,0V75C151.8,75,151.7,74.9,151.6,74.9L151.6,74.9z M151.3,74.3l-1.3,0.3l1.2-8l0.1-0.6l2-7.5l-1.5,7.3l-0.1,0.6
	L151.3,74.3z M151.2,66l-0.1,0.6l-1.3,8h-0.1l1.3-8l0.1-0.6l2.2-8.3c0,0,0.1-0.3,0.2-0.7l-0.1,0.7L151.2,66z M154,112.1l5.4,3.5
	l-1.5,2.8l-0.5-0.3l-0.2-0.1l0,0h-0.3l-2.4-1.6l-0.1-0.2c0,0,0-0.1-0.1-0.1l-0.6-0.4L154,112.1z M158.1,118.9c0,0,0.1,0,0.1-0.1
	l1.2-2.2l2,1.3c0.1,0.1,0.2,0.1,0.3,0.1s0.2-0.1,0.3-0.2l11.1,7.2c0,0.3,0.1,0.5,0.3,0.7l2.1,1.4l-0.3,3.6L158,119.4v-0.1
	L158.1,118.9z M177,126.7L177,126.7l2,1.3l0.3,0.3l-2.1-1.4C177.2,126.8,177.1,126.7,177,126.7z M180.1,128.8l0.4,0.2l1.9,1.2
	c0.1,0.1,0.1,0.2,0.1,0.2l0,0l0,0c0-0.1,0-0.2-0.1-0.2h-0.1L180.1,128.8z M182.3,131l5.4,3.6c0.4,0.3,0.9,0.4,1.4,0.4
	c0.3,0,0.6-0.1,0.9-0.2c-0.8,0.4-1.7,0.3-2.4-0.2L182.3,131L182.3,131z M187.8,134.5l-5.5-3.6l0.2-0.4c0.1-0.1,0-0.3-0.1-0.4l0,0
	l-1.9-1.2l-0.9-0.4l-0.6-0.6l-1.9-1.2c-0.2-0.1-0.3-0.1-0.5-0.1l-0.8,0.1l-2-1.3l4.4-2.7l14.4,9.4c0.4,0.2,0.8,0.4,1.3,0.5l-3.3,1.8
	c-0.1,0-0.1,0.1-0.1,0.2C189.7,135,188.7,135,187.8,134.5L187.8,134.5z M192.8,131.8l-14.3-9.3c0-0.1,0.1-0.1,0.1-0.2l14.2,9.3
	c0.4,0.3,1,0.5,1.5,0.5c0.2,0,0.4,0,0.6-0.1l0.1-0.1c-0.1,0.1-0.2,0.1-0.3,0.2l-0.2,0.1C193.9,132.2,193.3,132.1,192.8,131.8
	L192.8,131.8z M194.8,131.7c-0.6,0.2-1.3,0-1.9-0.4l-14.3-9.3l1.4-7l11.2,7.3c0.4,0.3,0.9,0.4,1.4,0.4c0.2,0,0.4,0,0.6-0.1
	c0.7-0.3,1.2-0.9,1.4-1.6l1.5-5.3l2.2,4.3l0,0v0.1l0.3,0.7c0,0,0,0,0,0.1l-2.6,9l-0.1,0.3c0,0,0,0.1-0.1,0.2
	C195.7,131,195.3,131.5,194.8,131.7L194.8,131.7z M198.5,119.7l-2.2-4.3l0,0v-0.1c-0.1-0.1-0.1-0.2-0.2-0.3l2.8-9.6l3,2.6
	L198.5,119.7z M199,105.1l0.3-0.3l3.3,2.8l0,0c0,0,0,0.1-0.1,0.1l-0.4,0.1L199,105.1z M199.4,104.6l2.1-7.4l5.1-5.5v0.1l-0.1,0.7
	c-0.1,0-0.2,0.1-0.2,0.2l-1.5,7.4c0,0-0.1,0.4-0.1,0.5l-1.9,6.7L199.4,104.6z M154,52.3L154,52.3h0.1c0.2,0,0.4,0.1,0.5,0.2h-0.1
	l-0.2,4.9l-0.1,0.2l-1.7,8.4l-0.6,8.3c-0.1,0-0.2,0-0.3,0l0.5-7.8l0.1-0.5l1.7-8.4L154,52.3L154,52.3z M153.5,52.3l0.4-0.1l-0.1,3.5
	h-0.1c0,0.2-0.1,0.3-0.1,0.5c-0.2,0.5-0.6,1-1,1.5c-0.3,0.3-0.6,0.5-1,0.6l-0.2,0.1c0.6-0.7,1.1-1.4,1.4-2.3l0.9-3.4
	C153.7,52.5,153.6,52.4,153.5,52.3L153.5,52.3z M153.1,52.4L153.1,52.4C153.2,52.4,153.2,52.4,153.1,52.4l-0.9,3.5
	c0,0-0.6,2.2-2.2,2.6c0,0-0.1,0-0.1,0.1l-2.4,0.3l-1.5,0.2l-0.7,0.1h-0.4c-0.1,0-0.1,0-0.2,0h-0.1h-0.1l0,0l0,0
	c-0.2,0-0.3,0.1-0.4,0.2l0,0l-5.9,3c0-0.4,0.1-1.2,0.1-1.9c0-0.1-0.1-0.2-0.1-0.2c-0.1,0-0.2-0.1-0.2-0.1L153.1,52.4z M134.8,58.8
	L134.8,58.8c0.1,0,0.2,0,0.3-0.1l1.8,1.2l-0.7,0.4c-0.1,0.1-0.2,0.2-0.1,0.3c0,0.1,0.1,0.1,0.2,0.1h0.1l0.9-0.5l0.1,0.1
	c-0.1,0.1,0,0.2,0.1,0.3s0.2,0.1,0.3,0.2c-0.1,1.2-0.1,1.7-0.1,2l-1.3,0.7c0.1-0.3,0.1-0.7,0-1c-0.1-0.5-0.3-1-0.5-1.4l0,0
	c0,0-0.1-0.1-0.1,0c0,0-0.1,0.1,0,0.1c0.2,0.4,0.3,0.9,0.3,1.4c0,0.4-0.1,0.8-0.4,1.1h-0.1c0.2-0.2,0.3-0.5,0.3-0.8
	c0-0.5-0.1-1.1-0.4-1.5c0-0.1-0.1-0.1-0.2-0.1c-0.1,0-0.1,0.1-0.1,0.2l0,0c0.5,0.9,0.4,2-0.1,2.2H135c-0.5-0.2-1-0.6-1.2-1.1
	c-0.1-0.1-0.1-0.2-0.2-0.3l0.8-0.5c0.1-0.1,0.2-0.2,0.1-0.3c-0.1-0.1-0.2-0.2-0.3-0.1l0,0l-0.8,0.5c-0.2-0.4-0.3-0.9-0.3-1.4
	c0.1-0.1,0.1-0.2,0.2-0.2c0.4-0.2,0.8,0,1.3,0.5c0.1,0,0.1,0,0.2,0v-0.1c-0.4-0.5-1-0.7-1.6-0.5l0,0c0.1-0.2,0.4-0.4,0.6-0.3
	c0.4,0.1,0.9,0.3,1.2,0.6h0.1v-0.1l0,0c-0.3-0.4-0.7-0.8-1.2-0.9c-0.3-0.1-0.6-0.1-0.9,0.1c-0.3,0.2-0.5,0.4-0.6,0.7
	c-0.2,0.5-0.2,1.1-0.1,1.7c0,0.2,0.1,0.4,0.2,0.7l-0.6,0.3c0-0.6,0-1.2,0.1-1.8c-0.1-0.7,0.1-1.5,0.6-2.1
	C133.3,58.2,134.2,58.4,134.8,58.8z M134.7,64.3l-1.4,0.7l-0.8,0.4l-0.3,0.2v-0.1c0-0.8,0-1.6,0-2.3l0.8-0.5
	c0.1,0.1,0.1,0.3,0.2,0.4c0.3,0.5,0.8,0.8,1.3,1.1L134.7,64.3z M191.9,148.5c-0.2,0.1-0.4,0.1-0.6,0.1c-0.5,0-0.9-0.2-1.4-0.4
	c-0.4-0.2-0.8-0.5-1.1-0.9l-1.2-0.8l0,0l-0.7-0.4l0,0l-55.7-36.4c-1.2-0.4-2.2-1.2-2.7-2.4l0,0l0,0v-0.1l0,0
	c-0.1-0.1-0.2-0.3-0.2-0.4l0,0c-0.4-0.8-0.6-1.8-0.6-2.7c0-0.3,0-0.6,0.2-0.9l1.4-38l0,0v-1.1l0.1-1.7c-0.1-0.4-0.1-0.7-0.1-1.1
	c-0.1-0.9,0.4-1.8,1.2-2.2l1.7-0.8c0.3-0.2,0.7-0.4,1.1-0.3h0.3c-0.3,0-0.7,0.1-0.9,0.4c-0.5,0.7-0.8,1.5-0.7,2.4
	c-0.1,0.7-0.1,1.4-0.1,2.1l0,0v0.6l0,0c0,0.7,0,1.4,0,2.1l0,0v0.1c0,0.1,0.1,0.2,0.2,0.2c0.1,0.1,0.3,0.2,0.4,0.1l0.4-0.2l0.8-0.4
	l1.6-0.8l0.5-0.3c0.2,0,0.4-0.1,0.5-0.3l2-1l6-3c-0.1,0.1-0.1,0.3-0.1,0.4l-9.4,35v0.1l-3.9,2l0,0h-0.1c-0.4,0.5-0.6,1.1-0.8,1.8
	l-0.1,3.5c0,0.9,0.2,1.8,0.6,2.6c0.1,0.2,0.2,0.5,0.3,0.7c0.5,0.8,1.1,1.6,1.9,2.2l6.5,4.3c0.5,0.2,1.1,0.4,1.7,0.4
	c0.1,0,0.2,0,0.2,0l0,0l0,0l1.7-1l43.8,28.6c0.2,0.1,0.4,0.2,0.6,0.2l-1.5,0.8c-0.2,0-0.4,0-0.6-0.1l-0.2-0.1v0.2
	c-0.1,0.5,0.2,1,0.6,1.3l3.1,2.1l3.3,2.2c0.4,0.3,0.9,0.5,1.4,0.5c0.1,0,0.2,0,0.3,0C193.1,147.8,192.2,148.3,191.9,148.5
	L191.9,148.5z M195.5,141.2l-1.1,0.6c-0.1,0.1-0.1,0.2-0.1,0.3c0.1,0.1,0.2,0.1,0.3,0.1l0.7-0.4l-0.1,3.4c0,0.2,0,0.4-0.1,0.6H195
	c-0.2,0.7-0.7,1.2-1.4,1.4c-0.5,0.1-1.1-0.1-1.5-0.4l-3-2l-3.5-2.3c-0.3-0.2-0.4-0.5-0.4-0.8c0.2,0,0.4,0.1,0.6,0.1l5.1-2.5
	c0.8-0.4,2.1,0.4,2.1,0.4l1.9,1.2c0.2,0.2,0.5,0.2,0.7,0.1L195.5,141.2z M195.7,140.8l-0.1-0.1c-0.2,0.1-0.4,0-0.6-0.1l-1.9-1.2
	c-0.6-0.3-1.2-0.5-1.8-0.5l2.9-1.5c0.7-0.3,1.6-0.3,2.2,0.1c1.1,0.7,1.9,1.3,1.9,1.3c0.2,0.1,0.4,0.2,0.6,0.1L195.7,140.8z
	 M201.3,137.6l-1.9,1.1l0,0l0,0c0-0.1-0.1-0.1-0.2-0.1l0,0c-0.2,0.1-0.5,0.1-0.7,0c0,0-0.9-0.7-1.9-1.4c-0.8-0.4-1.7-0.5-2.5-0.1
	l-6.4,3.3c-0.3,0-0.6,0-0.9-0.2L143,111.8l1.5-0.9l7.6,5c0,0.1,0.1,0.2,0.2,0.2l0,0h0.1h0.1h0.1l0.8-0.1l0,0c0,0.1,0.1,0.1,0.1,0.1
	l0,0l0,0l0.6,0.4l0.1,0.2c0,0,0,0.1,0.1,0.1l2.5,1.6h0.1h0.3l0.2,0.1l0.6,0.4c0,0,0,0,0,0.1l-0.2,0.4v0.1l0.1,0.2c0,0,0,0,0.1,0.1
	l17.4,11.3c0,0.1,0.1,0.1,0.2,0.2l0,0h0.1h0.1h0.1l0.8-0.1l0,0c0,0.1,0.1,0.1,0.1,0.1l0,0l0,0l0.4,0.2l0.1,0.2c0,0,0,0.1,0.1,0.1
	l2.5,1.6h0.1h0.2l0.6,0.4c0,0,0,0,0,0.1l-0.1,0.5c0,0.1,0,0.1,0.1,0.1l8,5.2c0.1,0.1,0.3,0.1,0.4,0.1c0.1,0,0.2,0,0.4-0.1l6.5-3.3
	c0.5-0.2,1-0.3,1.5-0.2l0.1,0.1h0.1c0.1,0,0.1,0,0.1-0.1h0.2l0.7-0.1c0,0,0,0,0.1,0h0.1h0.1l0.2,0.1c0,0,0,0,0,0.1v0.1
	c0,0.1,0,0.1,0.1,0.1L201.3,137.6c0.1,0.1,0.3,0.2,0.5,0.1L201.3,137.6L201.3,137.6z M197.7,135.8l1.1-4c0-0.1,0.1-0.2,0.1-0.2
	s0,0,0.1,0l0.7,0.2c-0.2,0-0.3,0.1-0.4,0.3l-0.9,3.6L197.7,135.8L197.7,135.8z M200.9,135.1l0.1,0.2l-0.1,0.4h0.3h0.1l0,0l0.2,0.4
	c0,0.1,0,0.1,0,0.2c-0.1,0-0.2-0.1-0.3-0.1c-0.5-0.4-0.8-0.9-0.8-1.5c0-0.1,0-0.2,0.1-0.3c0.1,0,0.2,0.1,0.2,0.2l0.1,0.2h-0.2
	L200.9,135.1z M200.9,134.1h0.1v0.2l0,0L200.9,134.1z M201.5,134.6l-0.4-0.5l0.2,0.1c0.2,0.1,0.3,0.3,0.4,0.4H201.5L201.5,134.6z
	 M201.5,135L201.5,135L201.5,135L201.5,135z M200.4,135.6c0.1,0.3,0.4,0.6,0.7,0.8l0.1,0.1c-0.1,0-0.2,0-0.3-0.1
	c-0.2-0.2-0.4-0.4-0.6-0.7c-0.2-0.4-0.3-0.8-0.1-1.2v0.1C200.2,134.9,200.2,135.3,200.4,135.6L200.4,135.6z M200.4,134
	c-0.2-0.1-0.4-0.1-0.6,0l0,0h-0.1c0.1-0.2,0.3-0.3,0.5-0.2L200.4,134L200.4,134z M199.9,134.2c0.1,0,0.1,0,0.2,0
	c-0.3,0.5-0.3,1.1,0,1.6c0.1,0.3,0.4,0.6,0.7,0.8c0.2,0.1,0.3,0.2,0.5,0.2h0.1c0,0,0,0.1-0.1,0.1c-0.2,0.1-0.5,0-0.6-0.1
	c-0.3-0.2-0.5-0.5-0.7-0.8C199.5,135.2,199.5,134.4,199.9,134.2L199.9,134.2z M200.2,136.8l-1.1-0.7l0,0l0.1-0.1l0.2-0.7
	c0,0.2,0.1,0.5,0.2,0.7C199.7,136.3,200,136.6,200.2,136.8L200.2,136.8z M201.7,136.9c0,0-0.1,0-0.1,0.1c-0.1,0.1-0.2,0.2-0.3,0.3
	c-0.2,0-0.3,0-0.4-0.1l-0.1-0.1c0.1,0,0.2,0,0.3,0.1c0.1,0,0.2,0,0.3-0.1c0.2-0.1,0.3-0.3,0.4-0.5
	C201.6,136.6,201.6,136.7,201.7,136.9L201.7,136.9L201.7,136.9z M201.9,136c0,0.1,0,0.1-0.1,0.1l-0.1-0.1c0-0.1,0-0.3-0.1-0.4h0.2
	C201.9,135.7,201.9,135.9,201.9,136L201.9,136z M201.9,135.4l-0.1-0.2l-0.1-0.2v-0.1l0,0C201.8,135.1,201.9,135.2,201.9,135.4
	L201.9,135.4z M201.7,134.4L201.7,134.4z M202.7,133.7l-0.8,0.4c0,0,0-0.1-0.1-0.1l-1.6-0.6c-0.1,0-0.2,0-0.2-0.1
	c0.1-0.1,0.2-0.2,0.3-0.2c0.2-0.1,0.5-0.1,0.8-0.1C202.3,133.4,202.7,133.6,202.7,133.7L202.7,133.7z M203,133.3
	c-0.1-0.1-0.6-0.2-1.7-0.6c-0.4-0.1-0.8-0.1-1.1,0.1c-0.4,0.3-0.8,0.7-0.9,1.2l0,0c0,0.1-0.1,0.2-0.1,0.2l-0.4,1.5l0,0l0.9-3.5h0.1
	l3.2,1h0.1L203,133.3z M202.7,132.3l-3.6-1.1c-0.1-0.1-0.3-0.1-0.4,0c-0.2,0.1-0.3,0.3-0.3,0.5l-1.1,4.1c-0.5-0.1-1.1,0-1.6,0.2
	l-6.5,3.3c-0.2,0.1-0.4,0.1-0.5,0l-7.9-5.1l0.1-0.4l0.1-0.1l1.1-2.3l5.4,3.6c0.5,0.3,1,0.5,1.6,0.5c0.7,0,1.3-0.3,1.8-0.8l4-2.1
	c0.8-0.4,1.4-1.1,1.6-2l0.1-0.3l2.6-9c0.1-0.1,0.1-0.2,0-0.4l-0.3-0.6l3.4-11.9l0.3-0.1c0.2,0,0.4-0.2,0.4-0.4l2-7
	c0-0.2,0.1-0.5,0.1-0.6l1.3-6.8c0.2,0.7,0.4,1.4,0.8,2.1l0.5,0.9l0,0c-0.1,0-0.1,0.1-0.2,0.1l-1.4,5.3c-0.2,0.3-0.1,0.8,0.2,1
	c0.4,0.4,2.8,2.8,2.9,2.9l0.1,0.1l0,0L202.7,132.3z M209.7,105.5L209.7,105.5C209.7,105.4,209.7,105.4,209.7,105.5
	c0-0.1-2.5-2.6-2.9-3s-0.2-0.5-0.2-0.5v-0.1l1.4-5.2l0.1,0.2l0.3,0.5h-0.1c-0.1,0-0.2,0.2-0.1,0.3l0,0c0.1,0.2,0.1,0.3,0.2,0.5
	c0,0,0,0,0,0.1c-0.3,1.2-0.9,3.2-0.9,3.4c-0.1,0.2-0.1,0.5,0.1,0.6l2.7,2.7l0,0L209.7,105.5z M210.4,104.6l-0.6-0.6l0.5,0.5
	L210.4,104.6L210.4,104.6z M210.4,104l-1.2-1.1c-0.1-0.1-0.1-0.1-0.1-0.2l0.1,0.1c0.2,0.1,0.4,0.2,0.6,0.2c0.1,0,0.2,0,0.3-0.1
	s0.2-0.1,0.3-0.2L210.4,104z M210.4,100.6L210.4,100.6l-0.5-0.5C210.1,100.2,210.3,100.4,210.4,100.6L210.4,100.6z M210.7,102.1
	l-0.1-0.1c0-0.1,0-0.3-0.1-0.4h0.2C210.8,101.7,210.8,101.9,210.7,102.1L210.7,102.1z"/>
<path d="M145.9,236.9L22,159v-0.1c2-5.1,2-23.5,0.1-56.2c-0.4-7.1,0-17.2,4.2-25.3c2.5-4.8,5.3-6.7,5.3-6.7l0.1,0.2
	c-0.1,0.1-10.8,7.4-9.4,31.8c1.9,32.5,1.8,50.9-0.1,56.2L146,236.7L145.9,236.9z"/>
<path d="M142,241.9l-0.3-0.2L17.3,163.4l0.1-0.4c1.9-5,2-23.4,0.1-56c-1.4-24.8,9.3-32.6,9.7-32.9l4.5-4.5l0.3,0.2l124.4,79.7v0.3
	c-1.5,9.9,0.7,20.8,2.8,31.4c1.9,9.4,3.6,18.4,2.6,25.8c-2.3,16.7-15.1,30.2-15.2,30.4l0,0L142,241.9z M18.5,163l123.4,77.7l4-4
	c0.3-0.3,12.7-13.6,14.9-29.8c1-7.2-0.8-16.1-2.6-25.5c-2.1-10.6-4.2-21.4-2.8-31.4L31.9,70.9l-4,4c-0.2,0.1-10.7,7.9-9.4,32.1
	C20.3,139,20.3,157.3,18.5,163z"/>
<path d="M54.3,31.9l-10.8-9.8c-0.2-0.1-0.4-0.2-0.6-0.2l-3.7-0.4L28.5,0h-1.1L38,21l0,0c-0.1,0-0.1,0.1-0.1,0.2l1.2,2.4l0,0l8.6,7.9
	L0.2,3.9c0,0-0.1,0-0.2,0V4v0.1l0.2,0.2l0,0l48.1,28l-16.7,9.6l0,0c-0.1,0-0.1,0-0.1,0.1L0.7,59.7L0,60.2l0,0v0.1l0,0h0.1l5,0.4
	l-4.5,2.6H0.1v1h0.4h0.1c0.2,0,0.3,0,0.5-0.1l4.7-2.7c0.5-0.3,0.7-0.9,0.4-1.3c0-0.2-0.1-0.3-0.2-0.3l-1.3-1.1l7.8-4.6l4.8,0.4h0.1
	c0.2,0,0.3,0,0.5-0.1l4.6-2.7c0.5-0.3,0.6-0.9,0.4-1.4c-0.1-0.1-0.1-0.2-0.2-0.2l-1.2-1.1l5.7-3.4l4.8,0.4h0.1c0.2,0,0.3,0,0.5-0.1
	l4.7-2.7c0.5-0.3,0.6-0.9,0.4-1.4c-0.1-0.1-0.1-0.2-0.2-0.2l-1.2-1.1l7.9-4.6l4.8,0.4l0,0c0.2,0,0.3,0,0.5-0.1l4.7-2.7
	c0.5-0.3,0.6-0.9,0.4-1.4C54.5,32.1,54.4,32,54.3,31.9L54.3,31.9z M5.1,60.5l-4.6-0.4L3,58.6L5.1,60.5z M17.4,53.6l-4.9-0.4l4.5-2.6
	l4.9,0.4L17.4,53.6z M21.9,50.8l-4.6-0.4l2.5-1.5L21.9,50.8z M32.2,45.1l-4.9-0.4l4.5-2.6l4.9,0.4L32.2,45.1z M36.7,42.3l-4.6-0.4
	l2.5-1.5L36.7,42.3z M49,35.4L44.1,35l4.5-2.6l4.8,0.5L49,35.4z M48.7,32.1l-9.4-8.6l-0.5-1l4,0.4l10.7,9.7L48.7,32.1z"/>
<line class="st0" x1="22.2" y1="158.9" x2="17.9" y2="163.2"/>
<path d="M38.5,176.6l-4.1-10.1l-0.7-0.5l4.1,10.1C38,176.3,38.2,176.5,38.5,176.6z"/>
<path d="M41.6,178.5l-4-10l-0.7-0.5l4,10C41.2,178.3,41.4,178.4,41.6,178.5z"/>
<path d="M44.8,180.5l-4-10l-0.7-0.5l4,10C44.3,180.2,44.5,180.3,44.8,180.5z"/>
<path d="M60.3,190.1l-3.9-9.8l-0.7-0.5l3.9,9.8C59.8,189.8,60.1,190,60.3,190.1z"/>
<path d="M63.5,192.1l-3.9-9.7l-0.7-0.5l3.9,9.7C63,191.8,63.2,191.9,63.5,192.1z"/>
<path d="M66.6,194l-3.9-9.7l-0.7-0.5l3.9,9.7C66.1,193.7,66.4,193.9,66.6,194z"/>
<path d="M82.2,203.7l-3.8-9.5l-0.7-0.5l3.8,9.5C81.7,203.4,82,203.6,82.2,203.7z"/>
<path d="M85.4,205.7l-3.8-9.5l-0.7-0.5l3.8,9.5C84.9,205.4,85.1,205.5,85.4,205.7z"/>
<path d="M88.5,207.6l-3.8-9.5l-0.7-0.5l3.8,9.5C88,207.3,88.3,207.5,88.5,207.6z"/>
<path d="M104.1,217.3l-3.8-9.3l-0.7-0.5l3.8,9.3C103.6,217,103.8,217.1,104.1,217.3z"/>
<path d="M107.2,219.3l-3.7-9.3l-0.7-0.5l3.7,9.3C106.7,219,107,219.1,107.2,219.3z"/>
<path d="M110.4,221.2l-3.7-9.3l-0.7-0.5l3.7,9.3C109.9,220.9,110.1,221.1,110.4,221.2z"/>
<path d="M126.8,231.5l-3.7-9.1l-0.7-0.5l3.7,9.1C126.4,231.2,126.6,231.3,126.8,231.5z"/>
<path d="M130,233.4l-3.7-9.1l-0.7-0.5l3.7,9.1C129.5,233.1,129.8,233.3,130,233.4z"/>
<path d="M133.2,235.4l-3.6-9l-0.7-0.5l3.7,9.1C132.7,235.1,132.9,235.3,133.2,235.4z"/>
<path d="M17.8,107.5l4.3-10.8c0-0.5,0-0.9,0-1.3l-4.4,10.9C17.8,106.7,17.8,107.1,17.8,107.5z"/>
<path d="M18.1,112.6l4.2-10.5c0-0.4,0-0.8-0.1-1.2L18,111.4C18.1,111.8,18.1,112.2,18.1,112.6z"/>
<path d="M18.5,117.7l4.2-10.3c0-0.4,0-0.8-0.1-1.2l-4.2,10.3C18.4,116.9,18.4,117.3,18.5,117.7z"/>
<path d="M19.2,133.5l4.1-10.2c0-0.4,0-0.8,0-1.3l-4.1,10.3C19.2,132.7,19.2,133.1,19.2,133.5z"/>
<path d="M19.4,139l4-10c0-0.4,0-0.9,0-1.3l-4.1,10.1C19.4,138.1,19.4,138.6,19.4,139z"/>
<path d="M19.5,143.2c0,0.5,0,0.9,0,1.3l3.9-9.7c0-0.4,0-0.9,0-1.4L19.5,143.2z"/>
</svg>
